<svg xmlns="http://www.w3.org/2000/svg" version="1.1" xmlns:xlink="http://www.w3.org/1999/xlink" xmlns:svgjs="http://svgjs.dev/svgjs" width="892.000000pt" height="888.000000pt"><svg version="1.0" xmlns="http://www.w3.org/2000/svg" width="892.000000pt" height="888.000000pt" viewBox="0 0 892.000000 888.000000" preserveAspectRatio="xMidYMid meet">

<g transform="translate(0.000000,888.000000) scale(0.100000,-0.100000)" fill="#000000" stroke="none">
<path d="M4090 8432 c-82 -7 -302 -53 -391 -81 -168 -54 -369 -158 -423 -219
-43 -49 -48 -12 -9 65 25 51 26 54 8 73 -42 47 -138 -8 -358 -205 -71 -63
-122 -121 -235 -267 -21 -26 -40 -47 -44 -48 -11 0 -10 109 1 147 7 25 6 35
-9 48 -17 15 -21 15 -49 1 -17 -9 -42 -31 -57 -50 -71 -89 -212 -373 -235
-474 -12 -52 -5 -159 15 -246 7 -31 11 -57 9 -60 -3 -2 -26 2 -51 10 -93 28
-142 20 -263 -42 -159 -81 -214 -152 -250 -320 -18 -84 -20 -123 -16 -264 4
-154 6 -172 37 -263 18 -55 44 -115 57 -134 17 -24 25 -54 29 -101 3 -37 9
-91 15 -121 5 -30 9 -109 9 -174 l0 -120 -158 -161 c-267 -272 -302 -324 -302
-452 0 -39 6 -92 14 -119 12 -38 13 -59 4 -104 -12 -63 -28 -81 -73 -81 -25 0
-31 -4 -33 -25 -2 -23 1 -25 42 -25 l43 0 7 -46 c11 -81 10 -82 -49 -110 -50
-24 -71 -44 -44 -44 5 0 7 -4 4 -10 -4 -6 6 -7 27 -3 75 16 79 13 96 -51 l14
-59 -33 -27 c-22 -19 -33 -37 -35 -58 l-2 -31 40 20 c22 11 41 19 43 17 1 -2
14 -26 28 -54 14 -28 49 -76 76 -106 l51 -55 -26 -99 c-21 -83 -25 -114 -21
-194 5 -97 26 -163 50 -155 7 2 34 -34 62 -83 44 -77 50 -93 49 -143 -3 -171
-137 -382 -273 -428 -46 -15 -115 -14 -156 3 -38 16 -59 7 -68 -31 -7 -29 49
-81 135 -124 55 -28 76 -33 161 -37 59 -3 120 0 157 8 33 7 62 11 65 9 2 -2
-7 -47 -21 -99 -42 -168 -64 -287 -64 -353 0 -132 54 -357 89 -377 10 -5 27
-8 38 -7 18 1 22 11 32 87 11 86 32 169 70 270 11 30 21 69 21 85 1 105 79
307 179 462 66 104 76 112 76 65 0 -26 -20 -77 -67 -168 -37 -72 -85 -182
-107 -243 -22 -62 -50 -127 -61 -146 -40 -64 -19 -352 37 -510 33 -94 243
-494 266 -507 10 -5 26 -6 37 -3 24 8 28 57 16 227 -4 70 -5 145 -1 165 7 37
8 36 31 -52 73 -271 164 -454 313 -624 83 -96 270 -261 296 -261 51 0 57 40
20 132 -23 60 -46 143 -59 216 -6 36 9 45 18 9 11 -47 133 -215 216 -298 133
-134 302 -226 482 -263 97 -20 147 -20 168 -1 15 14 26 10 116 -40 121 -67
247 -109 378 -125 150 -19 346 -1 346 32 0 5 4 7 9 4 13 -9 21 35 10 55 -5 11
-22 21 -37 25 -168 37 -301 93 -395 166 -125 99 -256 274 -280 376 -6 26 -11
29 79 -41 64 -50 237 -133 304 -148 31 -7 94 -9 147 -7 79 4 103 10 160 38
158 78 241 237 199 379 -48 163 -179 240 -304 180 -52 -25 -82 -69 -80 -117 1
-37 38 -98 56 -94 7 1 12 -2 12 -7 0 -12 47 -1 60 14 7 9 6 21 -7 43 -14 25
-15 32 -4 46 33 39 111 -5 132 -74 38 -126 -82 -229 -222 -190 -98 27 -172
144 -190 297 -13 113 -7 147 51 308 56 156 84 210 204 388 102 151 132 187
158 187 15 0 18 -8 18 -52 -1 -29 -4 -82 -9 -119 -11 -87 2 -226 27 -283 12
-26 58 -85 109 -138 80 -85 91 -101 122 -183 78 -209 146 -320 261 -428 102
-96 261 -157 411 -157 193 0 352 105 400 262 25 81 22 135 -10 219 -26 68 -78
130 -137 165 -66 39 -161 40 -226 2 -59 -35 -104 -117 -93 -170 16 -75 66
-118 137 -118 50 0 78 23 69 57 -6 22 -15 29 -42 34 -19 3 -40 9 -47 13 -37
23 15 96 68 96 78 0 130 -60 130 -151 0 -69 -25 -110 -94 -156 -42 -28 -57
-33 -110 -33 -76 0 -126 27 -176 93 -63 83 -75 132 -74 297 1 149 10 208 55
329 48 129 92 201 261 420 107 140 174 205 221 216 l28 7 -55 -103 c-63 -119
-86 -201 -86 -313 0 -98 14 -145 57 -195 93 -109 265 -111 338 -4 30 45 31 67
5 93 -16 16 -25 18 -40 10 -11 -6 -20 -19 -20 -29 0 -10 -9 -26 -20 -36 -24
-21 -81 -15 -120 13 -131 96 -28 338 193 453 327 170 456 269 615 471 181 230
297 492 362 817 50 249 50 477 -1 760 -11 58 -19 114 -19 124 0 54 58 -56 129
-243 36 -93 54 -166 76 -292 8 -50 53 -85 87 -66 12 7 28 20 35 28 36 43 73
253 74 425 2 272 -111 587 -332 923 -26 39 -43 72 -38 72 5 0 31 -11 57 -24
26 -13 67 -30 92 -37 25 -7 56 -23 70 -35 41 -37 75 -40 104 -10 15 14 26 32
26 41 0 28 -20 55 -40 55 -11 0 -38 23 -64 56 -25 31 -76 83 -113 117 -74 65
-116 108 -111 111 2 1 30 10 63 20 84 25 163 69 217 120 50 49 61 74 44 105
-10 20 -20 22 -171 25 -188 5 -258 19 -392 81 -86 40 -169 93 -160 102 3 2 24
-3 48 -11 24 -9 51 -16 59 -16 8 0 50 -16 95 -34 147 -63 325 -99 325 -66 0
27 -24 44 -138 94 -128 57 -322 171 -330 193 -2 7 9 15 25 19 15 4 64 24 108
45 190 92 320 254 236 295 -20 10 -33 9 -73 -7 -73 -29 -194 -26 -300 7 -86
27 -279 122 -312 154 -26 25 -12 40 39 40 99 0 305 98 383 182 47 51 30 117
-27 103 -130 -31 -203 -30 -349 5 -85 20 -192 65 -192 80 0 4 21 13 47 20 70
17 196 86 253 137 41 37 50 51 50 78 0 49 -20 60 -72 41 -60 -21 -101 -24
-188 -14 -112 13 -220 44 -370 108 -74 31 -181 76 -237 99 -57 24 -103 47
-103 51 0 9 51 20 99 20 45 0 192 35 229 54 36 18 56 57 48 90 -5 20 -13 26
-35 26 -56 0 -194 32 -334 77 -200 64 -294 82 -517 95 -133 8 -199 16 -208 25
-7 7 -10 13 -6 13 3 0 1 6 -5 14 -13 15 23 28 149 56 129 28 128 28 126 60 -1
16 -4 31 -7 33 -10 10 -168 77 -179 77 -7 0 -81 16 -164 37 -139 33 -163 36
-306 37 -167 1 -201 -4 -394 -60 -65 -19 -123 -33 -128 -32 -5 2 11 18 36 35
52 37 57 54 20 77 -24 17 -58 18 -174 8z m2 -114 c21 -6 37 -16 35 -22 -2 -6
-30 -22 -63 -36 -32 -13 -63 -30 -69 -36 -13 -14 -71 -54 -79 -54 -15 0 -3 21
32 55 23 24 30 35 18 31 -11 -4 -40 -11 -65 -17 -78 -17 -157 -68 -265 -171
-123 -115 -180 -186 -270 -328 -112 -175 -168 -397 -160 -625 l4 -120 -21 39
c-66 123 -38 457 55 661 39 86 149 246 241 350 48 55 98 114 112 132 74 97
365 180 495 141z m793 -25 c82 -19 145 -42 145 -53 0 -11 -23 -17 -99 -25
-107 -12 -482 -130 -638 -201 -167 -76 -406 -289 -528 -470 -58 -87 -165 -286
-165 -308 0 -6 -13 -17 -29 -23 -21 -7 -31 -20 -36 -44 -5 -19 -10 -28 -12
-22 -6 17 29 124 85 258 105 251 362 519 636 661 69 36 256 108 331 128 36 9
55 19 55 28 0 25 -228 -24 -378 -82 -164 -63 -390 -238 -505 -390 -23 -30 -61
-80 -85 -110 -90 -112 -193 -365 -233 -574 -12 -64 -26 -116 -29 -116 -25 0
-16 180 16 320 74 328 292 631 602 838 248 164 614 243 867 185z m-1437 -202
c-143 -150 -260 -322 -313 -461 -56 -147 -70 -232 -70 -422 0 -129 -3 -178
-11 -178 -23 0 -54 179 -54 307 0 228 47 373 181 553 85 116 218 239 304 284
63 33 54 13 -37 -83z m431 65 c9 -10 -6 -28 -71 -86 -213 -189 -356 -381 -432
-580 -14 -36 -25 -60 -26 -53 0 6 4 23 10 37 13 36 4 33 -15 -5 -24 -45 -29
-28 -11 34 49 169 242 441 417 590 61 51 97 76 110 77 4 0 12 -6 18 -14z
m-752 -73 c-9 -46 -51 -151 -106 -266 -101 -208 -136 -422 -107 -644 9 -67 16
-127 16 -135 -1 -27 -30 54 -55 157 -43 170 -33 372 26 548 34 101 113 258
158 315 47 58 77 69 68 25z m1910 -12 c15 -23 26 -19 -152 -60 -71 -16 -155
-38 -185 -50 -30 -12 -65 -21 -78 -21 -13 0 -21 -4 -18 -9 7 -11 -49 -35 -63
-27 -15 10 19 45 37 38 10 -3 13 -1 9 6 -11 16 39 46 127 77 193 66 301 81
323 46z m-2127 -121 c0 -6 -21 -59 -46 -118 -109 -255 -125 -529 -48 -817 15
-57 -50 76 -75 151 -84 260 -60 468 81 693 22 36 47 74 56 84 17 19 32 22 32
7z m2590 -5 c191 -31 486 -124 435 -136 -11 -3 -58 0 -105 8 -469 72 -586 68
-1009 -33 -76 -18 -304 -125 -388 -182 -87 -59 -238 -188 -308 -263 -33 -36
-84 -101 -114 -144 -64 -94 -91 -126 -102 -120 -21 13 51 157 129 259 119 157
238 268 395 371 175 114 320 169 592 225 165 34 325 39 475 15z m-970 -54 c0
-11 -31 -24 -38 -16 -3 3 0 5 7 5 7 0 9 5 6 10 -3 6 1 10 9 10 9 0 16 -4 16
-9z m-260 -5 c0 -3 -42 -39 -94 -81 -52 -41 -132 -117 -177 -168 -46 -51 -89
-92 -96 -92 -7 0 -26 -22 -44 -48 -17 -26 -33 -47 -35 -47 -20 0 107 162 210
268 87 92 236 197 236 168z m51 -95 c-11 -7 -9 -10 9 -13 20 -3 17 -7 -26 -38
-64 -47 -74 -53 -74 -42 0 5 10 14 23 20 22 11 22 11 -4 11 -17 1 -35 -10 -52
-29 -22 -24 -24 -30 -10 -30 26 0 4 -15 -23 -15 -23 -1 -22 2 18 42 23 24 46
43 51 43 5 0 17 8 26 18 9 10 25 24 36 30 24 13 47 16 26 3z m897 -23 c7 -7
12 -22 12 -34 0 -23 -30 -34 -94 -34 -97 0 -446 -119 -575 -196 -34 -20 -65
-33 -72 -28 -7 4 -9 3 -6 -2 3 -6 -4 -16 -16 -24 -20 -12 -21 -12 -8 3 12 15
11 17 -3 17 -26 0 -19 16 26 54 90 77 308 168 521 216 l97 22 19 -23 18 -23
17 32 c17 33 43 41 64 20z m233 -9 c15 -28 0 -41 -41 -37 -39 4 -48 19 -25 42
23 22 52 20 66 -5z m-104 -4 c6 -19 -12 -33 -47 -36 -32 -4 -35 -2 -38 24 -3
27 -2 28 39 25 23 -2 44 -7 46 -13z m202 4 c48 -17 41 -41 -11 -37 -36 2 -44
7 -46 26 -4 25 9 28 57 11z m81 -18 c0 -5 -7 -11 -15 -15 -15 -5 -20 5 -8 17
9 10 23 9 23 -2z m-3090 -114 c1 -210 24 -343 96 -534 20 -52 33 -97 31 -100
-7 -7 -79 101 -116 174 -39 79 -59 162 -67 284 -9 126 20 300 47 283 5 -3 9
-51 9 -107z m1580 -2 c-7 -9 -15 -13 -19 -10 -3 3 1 10 9 15 21 14 24 12 10
-5z m1543 -16 c118 -17 223 -47 320 -91 157 -69 396 -158 466 -173 36 -7 77
-18 91 -23 24 -9 23 -10 -20 -22 -93 -25 -256 -50 -331 -50 -97 0 -275 26
-311 45 -14 8 -33 15 -42 15 -9 0 -16 4 -16 8 0 5 -44 20 -97 33 -87 21 -120
24 -288 23 -178 0 -200 -3 -360 -36 -198 -42 -247 -48 -253 -30 -8 25 167 87
361 129 63 14 126 18 267 17 217 0 296 -14 472 -79 64 -24 142 -48 175 -54
116 -21 238 -31 268 -22 26 8 21 9 -32 10 -37 1 -63 5 -63 12 0 5 -4 8 -9 5
-5 -4 -11 -2 -13 3 -8 21 -364 143 -482 166 -79 15 -305 36 -361 33 -79 -3
-220 -20 -314 -38 -256 -50 -442 -124 -629 -252 -23 -16 -47 -26 -52 -23 -6 3
-10 1 -10 -4 0 -6 -7 -11 -15 -11 -26 0 -17 17 39 68 124 113 257 192 422 251
102 37 296 85 374 94 79 9 376 6 443 -4z m-1613 -57 c0 -5 -12 -20 -28 -33
-48 -44 -57 -44 -22 -1 34 40 50 51 50 34z m-1639 -197 c13 -124 34 -202 84
-307 57 -119 6 -113 -57 6 -56 108 -71 167 -72 281 -1 74 4 123 14 150 l15 40
2 -30 c2 -16 8 -79 14 -140z m2778 -190 c176 -42 328 -189 403 -391 19 -50 23
-80 23 -194 0 -116 -3 -145 -24 -208 -45 -138 -158 -276 -278 -339 -91 -49
-139 -43 -109 14 13 26 12 29 -11 51 l-25 23 48 34 c69 49 185 187 170 202 -3
4 -16 -3 -29 -15 -41 -38 -51 -24 -15 21 39 47 78 107 78 121 0 4 -9 6 -20 3
-17 -4 -19 -1 -14 21 3 15 15 39 25 55 23 32 20 33 -31 7 -52 -26 -53 -10 -4
54 19 26 34 51 32 56 -2 6 -22 0 -46 -11 -24 -12 -46 -19 -49 -16 -3 4 13 31
36 62 l42 55 -46 0 c-50 0 -55 7 -25 33 34 29 13 37 -36 16 -25 -12 -49 -18
-52 -14 -8 8 38 44 56 45 17 0 15 17 -4 24 -9 3 -31 6 -50 6 -19 0 -34 4 -34
8 0 18 37 40 78 47 95 16 7 50 -107 42 -72 -5 -74 -5 -43 9 17 8 32 19 32 24
0 6 9 19 20 30 19 19 19 19 -16 26 -55 10 -111 -2 -188 -40 -121 -59 -188
-134 -242 -267 l-18 -47 -37 14 c-21 7 -70 16 -109 20 -55 5 -70 10 -66 21 4
11 1 11 -15 3 -11 -6 -37 -10 -59 -8 l-39 3 77 95 c152 187 250 262 392 299
93 24 241 26 329 6z m579 -94 c201 -46 371 -128 657 -316 138 -91 293 -175
397 -215 72 -28 210 -60 258 -60 96 0 11 -46 -170 -91 -125 -31 -207 -36 -337
-19 -72 10 -263 73 -323 106 -14 8 -59 28 -100 45 -267 110 -287 119 -225 105
109 -25 107 -25 112 -5 3 11 7 19 10 19 2 0 57 -24 121 -54 238 -110 284 -126
472 -162 137 -26 311 -31 288 -8 -3 3 -18 7 -34 10 -16 3 -65 16 -109 29 -44
13 -125 36 -180 51 -55 15 -149 49 -210 75 -287 123 -439 185 -540 219 -154
52 -173 63 -196 117 -11 25 -18 48 -16 50 4 3 99 -18 242 -53 33 -9 104 -35
158 -60 117 -52 148 -57 97 -14 -74 64 -256 136 -451 179 -91 21 -179 62 -179
85 0 14 117 -1 258 -33z m-1397 2 c8 -8 -4 -14 -43 -23 -91 -20 -149 -41 -270
-96 -116 -53 -195 -80 -205 -70 -7 7 50 59 127 114 96 70 173 93 287 89 51 -1
98 -8 104 -14z m-2114 -34 c73 -35 177 -169 132 -169 -6 0 -7 -5 -3 -11 5 -8
1 -8 -14 0 -16 9 -105 104 -171 184 -20 24 1 23 56 -4z m4318 -33 c33 -9 106
-19 163 -22 56 -4 102 -10 102 -14 0 -17 -31 -31 -78 -37 -64 -7 -169 11 -255
44 -63 25 -67 28 -50 41 10 7 27 11 38 8 11 -3 47 -12 80 -20z m-4445 -28 c33
-17 52 -36 70 -70 13 -26 21 -50 18 -54 -4 -3 -26 1 -48 10 -49 19 -107 13
-152 -18 -52 -35 -47 -45 24 -45 72 1 133 -20 135 -48 1 -15 -7 -18 -48 -20
-60 -1 -88 -18 -130 -79 l-32 -47 37 7 c20 4 36 4 36 1 0 -3 -16 -22 -35 -44
l-35 -39 47 -6 c27 -4 56 -9 66 -12 27 -8 9 -24 -27 -24 -36 0 -86 -32 -86
-56 0 -11 12 -12 63 -7 l62 6 -49 -34 c-39 -27 -58 -51 -89 -111 -23 -43 -44
-78 -49 -78 -16 0 -59 102 -79 188 -18 72 -20 107 -16 202 9 217 75 339 206
386 50 18 60 17 111 -8z m2265 -57 c-15 -25 -248 -145 -390 -201 -160 -63
-195 -80 -161 -80 10 0 14 -4 10 -12 -5 -8 4 -9 32 -4 93 16 134 19 134 8 0
-6 -9 -14 -20 -17 -11 -3 -25 -16 -31 -27 -11 -20 -9 -20 36 -13 26 3 109 22
184 40 167 41 249 50 323 36 67 -12 163 -51 151 -61 -15 -13 -378 -60 -461
-60 -46 0 -103 -5 -128 -11 -68 -18 -55 -49 22 -49 53 0 41 -26 -21 -48 -16
-6 -22 -11 -13 -11 9 -1 18 -6 20 -13 4 -12 61 -8 278 23 79 11 204 5 280 -13
41 -10 190 -72 190 -80 0 -2 -143 -4 -317 -6 -230 -3 -325 -7 -347 -16 l-31
-13 40 -7 c71 -12 98 -21 102 -33 4 -11 -16 -18 -101 -37 -61 -14 -7 -20 222
-21 249 -2 275 -5 389 -54 55 -24 108 -69 68 -58 -11 3 -60 8 -110 12 -49 3
-135 14 -190 23 -122 20 -340 22 -373 3 -13 -7 -22 -15 -19 -17 9 -9 121 -34
134 -30 13 5 43 -19 43 -34 0 -4 -28 -12 -62 -16 l-63 -9 60 -5 c44 -4 63 -1
72 9 11 12 28 10 118 -13 145 -38 453 -140 550 -182 44 -19 94 -41 110 -48 17
-7 46 -20 65 -28 19 -9 56 -23 81 -32 48 -17 152 -97 234 -181 71 -72 254
-408 290 -530 10 -33 26 -82 36 -110 21 -58 26 -90 33 -205 6 -97 -7 -141 -19
-64 -4 27 -8 74 -10 104 -2 30 -11 80 -20 110 -25 80 -129 296 -173 354 -21
28 -50 71 -66 96 -16 25 -46 65 -66 90 -20 25 -53 70 -72 101 -20 31 -60 76
-89 100 -29 24 -73 63 -98 86 -26 23 -59 45 -75 49 -26 6 -21 -2 50 -86 107
-125 134 -161 134 -178 0 -12 -4 -12 -20 3 -11 10 -22 16 -25 13 -3 -3 24 -34
61 -69 36 -35 81 -91 101 -123 19 -33 60 -91 92 -130 74 -90 162 -277 190
-402 42 -192 44 -225 26 -352 -16 -114 -31 -172 -44 -172 -4 0 -12 55 -18 123
-26 279 -154 554 -379 814 -208 240 -621 535 -836 598 -34 9 -82 15 -120 13
l-63 -3 59 -34 c97 -54 100 -63 22 -55 -36 4 -66 4 -66 1 0 -3 30 -22 68 -42
71 -40 136 -85 130 -91 -2 -2 -44 10 -93 26 -48 17 -90 28 -92 26 -3 -2 35
-31 84 -64 92 -62 126 -92 103 -92 -7 0 -29 9 -49 20 -20 11 -61 29 -91 40
l-54 21 48 -43 c27 -24 59 -50 70 -58 67 -46 59 -66 -14 -35 -89 39 -94 30
-22 -37 90 -86 112 -109 112 -120 0 -5 -21 6 -47 25 -58 42 -113 70 -121 63
-3 -3 29 -42 71 -85 42 -43 77 -82 77 -85 0 -3 -17 5 -37 19 -42 27 -109 65
-117 65 -11 0 30 -75 49 -92 11 -10 16 -17 11 -18 -5 0 -2 -7 5 -16 9 -12 3
-10 -21 5 -19 11 -38 21 -42 21 -14 0 6 -43 33 -70 46 -46 35 -69 -14 -30 -32
25 -47 25 -47 1 0 -11 18 -34 40 -51 22 -17 38 -36 34 -41 -3 -5 1 -9 8 -10 7
0 8 -2 2 -5 -6 -2 -36 7 -67 21 -71 31 -76 15 -14 -41 23 -21 41 -42 39 -47
-1 -5 1 -6 6 -3 10 6 46 -30 55 -56 4 -10 -17 -1 -56 26 -81 57 -120 76 -135
67 -17 -10 0 -29 68 -78 65 -47 123 -110 114 -124 -5 -9 -11 -6 -85 53 -46 36
-161 100 -167 93 -3 -3 29 -41 71 -83 43 -43 74 -82 70 -87 -4 -4 -3 -5 3 -2
12 7 54 -34 73 -70 10 -19 9 -22 -3 -17 -9 3 -15 9 -14 12 3 15 -15 42 -23 36
-5 -3 -9 0 -9 6 0 6 -4 9 -8 6 -5 -3 -23 8 -40 24 -18 16 -32 27 -32 24 0 -2
-32 12 -71 32 -39 19 -73 33 -76 30 -3 -3 9 -20 26 -38 59 -62 26 -93 -47 -43
-45 31 -72 33 -65 5 3 -11 10 -17 16 -13 6 4 8 0 4 -10 -3 -8 0 -18 7 -20 7
-3 15 -14 18 -25 4 -15 1 -18 -19 -16 -13 1 -35 10 -49 19 -22 14 -26 14 -40
0 -19 -19 -33 -19 -40 0 -4 8 -10 12 -15 9 -5 -3 -9 -1 -9 4 0 6 -7 9 -16 8
-9 0 -19 5 -22 13 -3 8 0 11 7 7 6 -4 11 -3 11 2 0 14 -22 21 -58 18 -24 -2
-29 1 -27 16 2 10 0 16 -6 13 -5 -4 -9 -1 -9 4 0 6 -3 10 -7 10 -5 -1 -10 -1
-13 1 -3 1 -22 4 -44 6 -21 3 -51 11 -67 19 -15 8 -60 18 -101 21 -116 10
-276 84 -329 151 -12 16 -12 17 1 7 8 -7 51 -30 95 -52 89 -45 219 -71 288
-58 46 9 39 26 -10 26 -19 0 -76 9 -125 21 -75 18 -105 31 -178 80 -76 51
-166 136 -155 147 2 2 29 -17 60 -42 70 -58 138 -92 215 -110 33 -8 60 -12 60
-10 0 2 -42 23 -92 47 -114 53 -244 157 -290 230 -43 70 -49 154 -18 247 44
134 88 169 223 181 148 13 173 23 247 99 60 60 69 66 110 68 48 2 227 36 236
45 14 14 -14 29 -109 58 -56 17 -145 51 -197 74 -121 55 -148 60 -239 41 -41
-9 -76 -14 -78 -12 -15 15 141 116 179 116 6 0 9 3 6 6 -11 10 -132 -26 -173
-52 -22 -14 -54 -42 -71 -61 -41 -47 -50 -29 -18 35 40 81 131 136 259 158 51
8 55 11 48 29 -3 9 -19 16 -37 16 l-31 1 30 8 c57 14 -10 11 -83 -5 -115 -24
-192 -67 -244 -138 l-31 -42 7 44 c9 59 27 90 81 140 48 44 43 46 -32 16 -17
-7 -34 -11 -36 -8 -3 2 -23 -18 -45 -46 -52 -65 -66 -129 -57 -254 6 -89 5
-94 -29 -175 -34 -82 -103 -177 -152 -209 -26 -17 -86 -94 -79 -101 5 -5 178
109 183 121 2 4 9 7 14 7 6 0 -16 -28 -49 -63 -66 -68 -107 -138 -98 -166 4
-15 15 -8 60 37 30 30 57 53 60 50 3 -3 -6 -29 -19 -58 -30 -64 -43 -150 -27
-177 9 -16 10 -14 11 13 0 17 7 49 16 70 14 33 17 36 26 20 5 -9 7 -28 4 -41
-10 -39 12 -157 44 -242 19 -50 69 -138 129 -229 95 -145 97 -149 72 -151 -77
-7 -358 -7 -354 0 7 12 -72 8 -85 -5 -7 -7 -12 -8 -12 -2 0 5 -14 10 -30 11
-17 1 -30 -2 -30 -6 0 -5 -9 -11 -20 -14 -11 -3 -20 -13 -20 -22 0 -14 7 -16
38 -11 98 15 210 18 232 6 18 -10 21 -9 15 1 -6 8 -4 10 6 4 7 -5 23 -10 34
-11 12 -1 77 -12 146 -24 68 -12 140 -24 161 -27 42 -6 48 -19 48 -102 l0 -53
-42 6 c-153 21 -468 18 -413 -5 14 -5 16 -8 5 -9 -27 -4 251 -52 373 -65 36
-4 57 -11 57 -19 0 -21 -60 -134 -73 -139 -7 -3 -53 1 -103 9 -49 8 -159 21
-245 29 -86 9 -188 25 -225 36 -107 32 -123 34 -130 14 -12 -31 22 -46 192
-81 143 -30 420 -84 433 -84 13 0 -58 -45 -113 -71 -153 -72 -417 -76 -611 -9
-68 24 -288 138 -365 191 -156 106 -198 218 -127 340 87 150 118 174 240 188
96 11 163 39 234 97 89 73 146 192 141 293 l-3 56 -34 -65 c-40 -78 -75 -126
-102 -140 -19 -11 -19 -11 1 27 40 75 23 78 -44 9 -35 -36 -69 -66 -77 -66 -7
0 1 14 18 33 45 47 83 107 83 131 0 17 -7 12 -40 -26 -78 -90 -146 -109 -250
-68 -82 32 -145 35 -231 11 -94 -26 -144 -27 -211 -1 -29 11 -70 20 -90 20
-21 0 -38 5 -38 11 0 31 104 151 303 350 309 310 352 365 406 527 27 79 29
206 4 234 -23 25 -28 23 -48 -23 -18 -39 -20 -40 -53 -34 l-35 6 7 -43 c4 -24
9 -53 13 -66 5 -21 3 -22 -22 -12 -40 15 -77 12 -110 -10 -16 -11 -33 -20 -36
-20 -18 0 7 95 44 168 32 64 58 100 113 152 79 75 135 105 271 146 72 21 93
32 102 51 11 24 11 24 -36 39 -24 7 -13 28 46 85 64 62 127 99 235 135 75 26
116 30 116 13 0 -20 -111 -219 -183 -328 -86 -129 -243 -452 -240 -492 1 -11
-3 -17 -9 -13 -6 4 -5 -2 2 -15 8 -16 17 -20 33 -15 32 9 34 11 83 125 25 57
56 123 70 147 35 60 135 155 226 214 43 28 75 54 72 59 -3 5 0 9 5 9 6 0 11 4
11 9 0 19 -29 18 -95 -5 -38 -13 -70 -23 -71 -21 -2 1 5 20 15 42 38 85 177
225 273 275 20 11 76 29 125 40 48 11 137 33 196 49 120 33 133 26 48 -26 -28
-17 -48 -34 -43 -37 12 -7 145 22 209 45 85 33 98 19 22 -25 -36 -21 -66 -45
-66 -52 0 -8 7 -12 16 -9 42 12 264 56 268 52 6 -6 -53 -42 -111 -67 -109 -46
12 -47 147 -1 30 11 97 46 148 79 129 81 165 98 245 116 79 17 158 20 149 7z
m1603 -788 c80 -41 246 -161 336 -243 62 -57 174 -193 243 -296 100 -147 197
-371 239 -552 24 -103 20 -288 -10 -403 -45 -177 -101 -261 -241 -364 -83 -61
-162 -95 -217 -95 l-33 0 40 26 c108 72 173 175 215 339 19 74 19 84 5 135 -8
30 -24 93 -35 140 -66 276 -169 496 -335 715 -121 161 -230 269 -504 502 l-26
22 65 -6 c68 -6 104 -20 158 -61 25 -19 36 -22 44 -14 13 13 10 17 -92 125
-65 69 -66 70 -45 91 14 14 20 14 68 -5 29 -11 85 -36 125 -56z m-1149 -133
c188 -31 478 -164 676 -310 98 -73 127 -100 104 -100 -8 0 -34 12 -59 26 -25
14 -88 49 -140 77 -52 28 -111 61 -131 73 -104 65 -346 167 -521 221 -21 6
-24 23 -5 23 6 0 41 -5 76 -10z m1685 -29 c4 -5 25 -12 49 -16 41 -7 76 -24
149 -73 51 -33 72 -24 63 27 -4 23 -2 42 4 45 5 4 36 -3 68 -15 272 -101 347
-122 458 -128 l110 -6 -55 -22 c-76 -30 -101 -34 -194 -34 -91 0 -287 25 -328
42 -16 6 -28 18 -28 26 0 11 -7 13 -25 9 -14 -4 -25 -3 -25 2 0 11 -68 35 -79
27 -5 -3 -12 -1 -16 5 -3 5 -15 10 -26 10 -10 0 -19 5 -19 10 0 6 -6 10 -12
10 -17 0 -118 70 -118 81 0 12 17 12 24 0z m315 -370 c65 -43 252 -222 319
-304 79 -98 182 -272 226 -385 67 -171 152 -570 117 -548 -6 4 -11 18 -11 30
0 13 -9 66 -19 117 -59 284 -225 587 -470 853 -73 80 -137 146 -141 146 -4 0
-13 15 -20 33 -7 17 -25 44 -38 60 -33 35 -18 34 37 -2z m-775 -106 c-4 -8
-11 -15 -16 -15 -6 0 -5 6 2 15 7 8 14 15 16 15 2 0 1 -7 -2 -15z m1300 -84
c4 -5 -3 -7 -14 -4 -23 6 -26 13 -6 13 8 0 17 -4 20 -9z m-1386 -56 c26 -30
27 -41 5 -49 -18 -7 -35 12 -28 31 2 7 0 15 -5 18 -12 7 -13 25 -2 25 5 0 18
-11 30 -25z m241 -55 c53 -79 63 -110 34 -110 -19 0 -98 104 -89 118 3 5 -3
22 -13 38 -17 28 -17 30 0 30 10 0 37 -29 68 -76z m819 -92 c75 -89 182 -255
240 -375 30 -63 52 -117 49 -120 -3 -3 1 -12 9 -21 10 -10 12 -18 5 -25 -17
-17 -36 0 -71 64 -18 35 -43 78 -56 94 -26 35 -134 213 -134 221 0 3 5 2 12
-2 6 -4 4 3 -5 17 -9 13 -17 33 -17 45 0 12 -7 27 -15 34 -8 7 -15 17 -15 23
0 6 -17 25 -37 43 -20 18 -34 36 -30 40 4 4 -10 26 -30 48 l-38 40 44 -37 c24
-20 64 -60 89 -89z m-2195 19 c7 6 11 -10 8 -32 0 -5 4 -3 11 6 10 15 14 14
41 -10 108 -97 233 -347 252 -508 4 -32 9 -66 11 -75 1 -10 -1 -20 -6 -23 -5
-3 -6 -18 -2 -33 17 -68 3 -263 -21 -296 -11 -15 -12 -4 -5 56 28 277 -63 579
-248 825 -75 99 -84 113 -62 96 8 -7 18 -10 21 -6z m-77 -98 c95 -111 113
-140 178 -283 79 -177 98 -264 100 -456 1 -177 -12 -242 -74 -375 -33 -71
-116 -183 -126 -172 -3 2 9 41 26 87 43 116 58 251 42 378 -17 134 -36 190
-131 387 -90 186 -125 264 -135 310 l-7 29 22 -19 c12 -11 55 -64 95 -117 77
-101 100 -124 91 -92 -3 11 -12 44 -21 74 -8 30 -35 87 -59 125 -24 39 -52 95
-62 125 -10 30 -20 61 -23 68 -11 31 21 5 84 -69z m1347 -37 l5 -26 -19 25
c-22 29 -24 40 -5 33 8 -3 16 -17 19 -32z m37 -33 c0 21 28 -6 50 -50 15 -28
17 -44 11 -67 -5 -17 -7 -33 -3 -36 3 -3 1 -6 -4 -6 -14 0 -86 149 -78 162 4
6 9 5 15 -3 7 -12 9 -12 9 0z m120 -229 c0 -13 -1 -13 -10 0 -5 8 -10 22 -10
30 0 13 1 13 10 0 5 -8 10 -22 10 -30z m-1019 4 c5 -15 8 -29 5 -31 -2 -2 -8
10 -14 26 -13 38 -5 41 9 5z m894 -75 c4 -17 20 -63 36 -101 16 -39 40 -121
54 -182 42 -183 41 -166 11 -166 -19 0 -32 9 -46 33 -26 41 -34 71 -64 237
-41 227 -39 210 -17 210 14 0 21 -9 26 -31z m-4526 -47 c53 -56 151 -200 172
-254 10 -26 23 -80 28 -120 l9 -73 -41 -54 c-23 -29 -56 -64 -74 -78 -30 -23
-36 -25 -59 -13 -39 22 -86 99 -82 139 2 26 -4 40 -28 65 -37 36 -52 97 -30
115 14 11 11 51 -4 51 -10 0 -30 47 -30 71 0 11 10 38 23 60 21 38 21 41 5 53
-22 17 -23 34 -1 58 27 30 71 23 112 -20z m3087 -63 c67 -89 119 -194 132
-269 29 -154 22 -178 -18 -68 -13 35 -58 134 -101 222 -44 87 -79 167 -79 179
0 25 -2 27 66 -64z m-1259 45 c-3 -3 -12 -4 -19 -1 -8 3 -5 6 6 6 11 1 17 -2
13 -5z m43 -8 c0 -2 -7 -6 -15 -10 -8 -3 -15 -1 -15 4 0 6 7 10 15 10 8 0 15
-2 15 -4z m25 -26 c3 -6 -1 -7 -9 -4 -18 7 -21 14 -7 14 6 0 13 -4 16 -10z
m-712 -7 c-7 -2 -21 -2 -30 0 -10 3 -4 5 12 5 17 0 24 -2 18 -5z m2630 -182
c9 -41 9 -55 0 -58 -6 -2 -9 -14 -6 -26 3 -16 2 -18 -5 -8 -6 8 -15 10 -22 6
-10 -6 -11 -2 -7 17 4 15 -1 51 -12 84 -17 54 -17 60 -2 81 l16 22 14 -32 c7
-18 18 -56 24 -86z m919 82 c2 -10 1 -34 -2 -53 l-6 -35 -8 35 c-4 19 -10 43
-12 53 -3 10 0 17 9 17 8 0 16 -8 19 -17z m-2702 -78 c28 -14 29 -17 15 -31
-14 -14 -19 -13 -53 8 -20 12 -40 22 -44 20 -5 -1 -8 4 -8 12 0 17 49 12 90
-9z m294 7 c8 4 98 -83 126 -122 26 -37 8 -41 -36 -7 -61 45 -134 110 -134
119 0 5 5 6 10 3 6 -3 10 2 10 12 0 14 2 15 9 5 4 -8 11 -12 15 -10z m1369
-216 c1 -151 -3 -199 -22 -288 -66 -317 -217 -621 -573 -1153 -66 -99 -234
-433 -268 -535 -12 -36 -33 -106 -46 -157 -24 -92 -103 -297 -111 -289 -8 8
45 265 82 400 41 149 93 282 169 434 54 106 80 150 290 492 182 295 297 544
370 805 45 163 63 249 71 350 10 134 16 161 27 140 6 -9 11 -98 11 -199z m277
122 c0 -4 -6 -8 -14 -8 -8 0 -17 4 -20 8 -2 4 4 8 15 8 10 0 19 -4 19 -8z
m1498 -13 c-3 -3 -9 2 -12 12 -6 14 -5 15 5 6 7 -7 10 -15 7 -18z m-1483 -129
c16 -239 -55 -559 -150 -671 -32 -39 -32 -27 4 77 17 47 43 136 58 199 26 106
28 129 28 320 l0 207 27 -14 c25 -13 26 -18 33 -118z m1496 109 c5 4 9 -3 9
-14 0 -10 3 -26 6 -34 3 -10 -2 -18 -15 -22 -28 -9 -27 -25 1 -17 13 3 19 1
15 -6 -4 -5 -1 -13 5 -15 10 -4 10 -8 -1 -15 -12 -9 -12 -13 2 -27 12 -11 17
-34 18 -73 0 -31 3 -79 6 -107 7 -69 -14 -299 -38 -420 -43 -211 -154 -471
-280 -655 -58 -85 -189 -225 -189 -202 0 7 5 12 11 12 5 0 7 5 4 10 -3 6 9 29
28 53 42 53 165 268 211 370 56 123 124 317 137 393 6 38 17 94 25 124 8 30
14 78 14 107 0 39 4 55 18 62 9 6 11 11 5 11 -10 0 -13 30 -14 113 0 61 -4
151 -7 199 -8 99 -7 109 14 101 8 -3 14 0 14 6 0 6 -4 11 -10 11 -5 0 -10 8
-11 18 0 14 -2 14 -9 -3 -7 -17 -9 -14 -9 13 -1 30 0 32 15 18 8 -9 20 -14 25
-11z m-1704 -7 c-3 -8 -6 -5 -6 6 -1 11 2 17 5 13 3 -3 4 -12 1 -19z m59 -45
c14 -76 -3 -324 -31 -433 -56 -225 -169 -484 -318 -731 -35 -58 -83 -141 -107
-185 -24 -43 -70 -113 -101 -155 -32 -42 -72 -101 -90 -130 -82 -141 -173
-269 -192 -269 -12 0 -17 -5 -14 -13 3 -8 1 -20 -4 -28 -7 -12 -9 -12 -9 0 0
11 -4 9 -15 -5 -14 -18 -14 -17 -5 9 23 64 165 331 243 457 46 74 99 160 117
190 18 30 62 99 96 152 78 119 203 366 259 513 72 186 114 395 115 566 0 49 5
90 11 96 18 18 38 4 45 -34z m-2080 -30 c-6 -17 -5 -17 8 0 16 20 39 22 53 5
12 -16 13 -49 1 -42 -5 3 -6 9 -4 13 3 4 -6 7 -20 7 -13 0 -24 -4 -24 -9 0 -5
6 -7 13 -4 25 9 53 -29 80 -110 31 -94 33 -129 12 -199 -26 -89 -105 -142
-235 -158 -62 -8 -238 10 -257 26 -21 17 -5 27 35 24 68 -7 175 14 240 45 108
52 140 135 88 225 -23 41 -27 103 -9 144 7 18 10 26 12 40 0 6 4 10 7 10 3 0
3 -8 0 -17z m1230 -115 c-9 -66 -40 -147 -111 -288 -74 -149 -115 -216 -272
-446 -377 -552 -490 -791 -558 -1179 -26 -147 -35 -402 -18 -529 7 -60 12
-111 9 -113 -5 -6 -51 116 -76 207 -30 105 -38 327 -16 469 37 240 98 434 198
621 62 118 214 349 317 483 255 334 428 607 476 757 10 30 22 61 27 67 19 24
30 1 24 -49z m-172 -19 c-20 -67 -110 -249 -153 -309 -17 -25 -64 -92 -103
-150 -40 -58 -104 -148 -142 -200 -300 -403 -421 -618 -498 -885 -26 -88 -50
-181 -53 -207 -3 -27 -10 -48 -14 -48 -5 0 -11 36 -15 81 -7 91 20 286 56 394
25 75 115 266 164 348 63 103 194 274 315 411 206 233 342 413 416 553 21 39
39 70 40 69 2 -1 -4 -27 -13 -57z m309 37 c14 -37 18 -135 7 -176 -7 -25 -33
-74 -60 -110 -26 -36 -55 -88 -64 -117 -10 -28 -30 -70 -47 -93 -16 -22 -40
-64 -53 -93 -13 -28 -80 -137 -150 -241 -253 -375 -388 -624 -460 -846 -107
-326 -129 -595 -76 -905 23 -135 37 -180 100 -312 47 -99 50 -113 25 -113 -33
0 -159 231 -189 347 -42 162 -59 305 -53 448 7 164 35 336 78 490 44 157 69
219 157 388 75 148 137 246 376 596 114 167 257 405 325 538 17 34 38 96 48
138 16 73 25 89 36 61z m-2862 -158 c0 -24 4 -52 8 -63 8 -19 8 -19 18 0 6 11
16 39 22 63 7 23 16 42 21 42 6 0 10 -19 11 -42 1 -24 4 -54 9 -68 8 -27 7
-29 37 54 22 59 39 57 36 -4 -3 -55 4 -93 17 -85 5 3 16 30 25 60 8 30 19 55
24 55 5 0 12 -27 15 -61 12 -100 29 -120 40 -46 4 23 11 49 16 57 9 13 11 13
20 0 5 -8 10 -31 11 -50 1 -48 12 -83 27 -88 8 -2 12 8 12 32 0 19 5 47 11 63
13 31 8 37 46 -61 26 -68 41 -70 45 -5 2 31 8 54 16 57 6 2 12 -4 12 -13 0 -8
10 -35 22 -58 l21 -42 9 35 c14 51 24 56 44 21 20 -33 34 -40 34 -16 0 20 34
19 50 0 9 -11 16 -13 24 -5 17 17 47 11 105 -21 34 -20 50 -25 42 -15 -13 15
-13 19 0 27 24 15 37 11 144 -45 69 -36 128 -60 181 -71 114 -24 131 -34 61
-34 -57 -1 -228 37 -295 65 -31 13 -33 13 -21 -2 18 -22 118 -71 214 -106 l80
-28 -75 5 c-41 2 -110 16 -153 29 -71 22 -77 23 -62 6 20 -22 86 -55 175 -85
50 -18 61 -24 46 -30 -22 -10 -130 9 -203 35 -29 10 -55 15 -58 10 -6 -9 91
-61 163 -86 28 -10 52 -22 52 -27 0 -16 -109 0 -187 26 -55 19 -70 21 -69 10
4 -22 27 -35 156 -85 17 -6 21 -11 12 -17 -17 -10 -112 5 -184 29 -37 12 -60
15 -64 8 -9 -14 2 -22 86 -65 59 -29 70 -38 52 -41 -25 -4 -149 31 -195 54
-15 8 -32 12 -38 9 -10 -7 42 -53 94 -83 78 -47 -16 -36 -119 14 -85 40 -153
98 -214 183 -25 34 -47 56 -49 50 -2 -6 14 -45 35 -87 28 -57 57 -96 112 -149
41 -40 71 -73 67 -73 -4 0 -34 14 -67 32 -73 39 -137 108 -206 224 l-54 89 6
-49 c8 -65 39 -125 109 -207 62 -75 62 -85 1 -41 -86 63 -140 142 -213 316
-19 45 -24 23 -12 -50 14 -76 53 -160 119 -254 42 -58 43 -62 16 -43 -95 68
-177 191 -210 315 -24 87 -34 93 -34 20 0 -56 28 -169 49 -197 4 -5 23 -36 41
-69 28 -50 30 -57 12 -47 -59 32 -142 173 -169 290 -23 99 -22 98 -33 81 -12
-19 -13 -166 -1 -208 15 -50 -5 -38 -33 21 -26 54 -41 108 -51 190 -5 40 -9
46 -21 36 -7 -6 -19 -30 -26 -53 -17 -61 -25 -63 -32 -8 -8 59 14 192 43 257
20 46 77 125 89 125 4 0 5 -23 3 -51 -4 -65 9 -58 39 21 12 33 26 60 31 60 5
0 9 -19 10 -42z m4309 -70 l31 -33 -4 -95 c-7 -122 -26 -192 -88 -315 -115
-229 -144 -277 -414 -675 -239 -353 -272 -407 -346 -557 -147 -302 -225 -620
-198 -811 5 -35 23 -104 39 -152 60 -171 42 -195 -31 -43 -84 176 -106 351
-70 563 24 146 39 199 92 333 77 193 190 391 363 636 129 183 249 369 338 524
145 255 155 278 202 492 24 109 41 165 50 165 3 0 19 -15 36 -32z m772 -38 c4
0 8 8 11 18 12 48 -13 -188 -28 -270 -2 -9 -7 -37 -10 -62 -5 -30 -15 -52 -29
-62 -12 -10 -15 -14 -5 -11 14 5 13 -4 -6 -66 -80 -256 -230 -541 -356 -674
-106 -112 -219 -197 -219 -164 0 15 48 80 123 165 156 179 276 391 356 631 56
169 74 246 91 390 8 68 17 104 28 113 10 7 11 12 4 12 -7 0 -12 5 -12 12 0 6
10 2 23 -10 13 -12 26 -22 29 -22z m-609 -75 c-3 -9 -8 -14 -10 -11 -3 3 -2 9
2 15 9 16 15 13 8 -4z m220 -50 c4 -8 1 -17 -5 -21 -7 -4 -6 -9 3 -14 10 -7
10 -12 -2 -26 -9 -12 -10 -15 -1 -10 10 6 11 1 6 -21 -16 -73 -36 -132 -49
-149 -8 -10 -15 -27 -15 -37 0 -11 -4 -15 -12 -11 -7 4 -8 3 -4 -5 12 -19 -22
-108 -98 -256 -115 -222 -266 -426 -482 -654 -111 -117 -164 -177 -228 -259
-27 -34 -51 -60 -54 -57 -3 3 -11 0 -18 -6 -8 -6 -21 -9 -29 -5 -16 6 -38 -22
-50 -64 -12 -40 -107 -200 -115 -195 -5 3 -12 0 -16 -6 -4 -8 -3 -9 4 -5 14 9
16 -8 3 -32 -5 -9 -15 -32 -22 -50 -8 -24 -14 -30 -20 -20 -5 7 -9 10 -10 6
-1 -5 -3 -12 -4 -18 -1 -5 -3 -14 -4 -18 0 -5 -11 -14 -23 -20 -13 -6 -17 -11
-10 -11 7 -1 10 -6 7 -11 -4 -6 -11 -7 -17 -4 -6 4 -8 1 -6 -7 3 -8 11 -13 17
-11 6 1 11 -2 11 -8 0 -5 -6 -10 -14 -10 -8 0 -18 -5 -22 -12 -4 -6 -3 -8 3
-5 7 5 11 -39 11 -136 1 -232 13 -302 72 -425 28 -57 49 -106 46 -109 -13 -13
-97 154 -110 220 -2 6 -9 26 -15 42 -20 48 -33 245 -22 348 19 190 133 507
248 694 27 43 55 94 63 113 23 56 157 258 180 270 11 6 25 8 30 5 12 -7 15 1
30 75 11 59 54 124 67 104 5 -7 17 -13 28 -15 17 -4 20 -13 23 -66 3 -68 3
-68 -73 -75 -42 -4 -68 -51 -54 -101 5 -20 14 -39 20 -42 17 -11 78 35 104 78
13 23 40 58 60 77 20 19 43 51 51 70 19 44 8 53 -82 70 -35 7 -66 16 -69 20
-5 8 48 82 91 130 12 14 50 75 84 135 34 61 74 128 88 150 34 52 113 209 136
268 21 55 47 62 70 20 12 -25 12 -30 -10 -63 -15 -22 -27 -59 -31 -91 -3 -30
-13 -65 -23 -79 -9 -14 -27 -51 -39 -82 -13 -32 -41 -77 -62 -101 -21 -25 -48
-70 -59 -101 -17 -44 -31 -63 -66 -86 -49 -35 -56 -62 -27 -110 l16 -29 43 30
c53 36 131 153 227 343 90 177 127 264 167 394 30 97 49 124 63 87z m-1572
-59 c19 17 19 16 8 -14 -24 -68 -179 -373 -241 -472 -245 -393 -347 -579 -419
-755 -59 -148 -127 -380 -149 -509 -15 -90 -23 -196 -28 -359 l-7 -232 -28
111 c-23 95 -27 131 -27 255 0 177 24 342 65 459 9 25 23 77 32 115 17 77 126
343 205 500 74 149 74 150 26 175 -45 23 -51 22 -68 -20 -10 -25 -10 -38 0
-70 11 -34 11 -42 -8 -72 -34 -54 -172 -337 -202 -413 -33 -82 -94 -322 -114
-450 -8 -49 -18 -151 -21 -225 -6 -116 -4 -149 15 -240 37 -175 81 -275 170
-382 42 -51 95 -110 118 -130 23 -21 36 -38 28 -38 -7 0 -19 6 -25 14 -7 8
-19 12 -29 10 -9 -3 -33 10 -54 28 -66 59 -188 208 -217 266 -118 236 -166
568 -122 849 28 178 55 284 105 411 85 213 207 430 405 722 28 41 81 124 117
184 36 60 79 125 96 145 17 19 37 49 44 68 9 20 23 34 37 37 50 11 107 14 107
6 0 -25 -131 -299 -159 -332 -40 -48 -56 -128 -26 -128 23 0 71 54 102 114 14
28 38 69 53 91 15 22 55 95 88 162 39 77 68 123 79 125 10 2 20 -3 21 -10 3
-11 8 -10 23 4z m960 -94 c-21 -67 -80 -186 -110 -222 l-21 -25 14 45 c29 100
112 274 125 265 5 -3 1 -31 -8 -63z m-176 -334 c-11 -36 -62 -124 -138 -238
-93 -140 -228 -322 -234 -316 -13 13 115 222 298 483 63 92 87 114 74 71z
m-3921 -103 c-10 -60 -48 -171 -68 -197 -12 -15 -46 -57 -76 -95 l-54 -68 49
42 c28 23 70 62 95 87 67 69 114 59 66 -15 -42 -63 -133 -119 -201 -123 -11
-1 -46 -8 -77 -15 -41 -10 -67 -11 -90 -4 l-33 9 56 28 c117 58 204 158 281
324 28 58 43 80 48 71 5 -7 7 -27 4 -44z m3676 -13 c0 -9 -21 -48 -47 -86
-150 -216 -351 -534 -395 -626 -44 -92 -111 -257 -131 -325 -26 -84 -36 -145
-42 -257 -10 -163 -45 -133 -45 37 0 99 37 277 85 406 56 151 241 499 266 499
4 0 10 10 13 23 3 12 15 33 27 47 11 14 17 19 13 11 -5 -9 -3 -12 5 -7 6 4 9
11 6 17 -9 13 87 151 174 251 28 32 71 38 71 10z m-3417 -205 c-3 -7 -27 -46
-53 -87 -137 -222 -203 -382 -266 -643 -33 -136 -42 -132 -43 18 -2 230 120
519 297 707 29 30 39 35 54 27 11 -6 16 -15 11 -22z m1077 -13 c-6 -14 -15
-34 -21 -46 -6 -11 -13 -32 -15 -46 -3 -15 -25 -65 -48 -112 -177 -347 -279
-647 -306 -898 -17 -153 -8 -613 15 -736 9 -48 14 -90 12 -93 -12 -11 -93 291
-106 397 -12 93 -6 452 8 542 22 135 118 424 189 563 87 173 259 455 277 455
3 0 0 -12 -5 -26z m-175 -31 c-6 -27 -6 -27 9 -9 28 35 17 10 -52 -121 -90
-168 -140 -280 -198 -438 -118 -327 -129 -391 -128 -740 1 -231 4 -275 26
-395 14 -74 24 -137 22 -139 -1 -1 -16 24 -33 57 -87 173 -123 477 -91 782 18
169 92 410 185 605 68 141 242 425 261 425 2 0 2 -12 -1 -27z m-740 -242 c-79
-157 -138 -321 -168 -465 -18 -92 -22 -143 -22 -294 1 -166 -1 -180 -13 -145
-91 256 -62 541 84 839 53 108 148 222 170 203 11 -9 2 -34 -51 -138z m133
-56 c-151 -293 -204 -536 -208 -943 0 -85 -16 -52 -31 65 -20 161 -16 347 10
473 47 229 99 341 260 565 l36 49 5 -29 c5 -24 -10 -61 -72 -180z m4182 60
c-7 -9 -15 -13 -19 -10 -3 3 1 10 9 15 21 14 24 12 10 -5z m-1271 -92 c-23
-43 -66 -118 -96 -168 -57 -92 -90 -168 -138 -315 -16 -47 -36 -103 -46 -125
l-19 -40 0 40 c0 49 30 177 63 268 46 127 235 417 271 417 4 0 -11 -35 -35
-77z m-2161 -42 c-3 -38 -1 -58 6 -54 6 4 6 -1 2 -13 -40 -97 -98 -305 -131
-463 -16 -75 -22 -213 -10 -241 3 -10 -5 -24 -25 -38 -53 -39 -35 -102 33
-114 37 -7 48 14 46 94 -1 68 24 249 41 293 6 15 23 82 39 149 40 167 55 201
86 201 14 0 25 -2 25 -5 0 -3 -18 -75 -39 -160 -45 -178 -77 -470 -66 -600 16
-190 48 -361 95 -494 35 -102 149 -289 234 -385 26 -29 45 -55 42 -58 -9 -9
-69 34 -112 79 -135 140 -258 363 -299 537 -9 37 -21 86 -28 111 -6 25 -10 64
-8 88 6 84 -33 127 -74 82 -19 -21 -19 -20 9 -150 58 -275 78 -332 162 -470
18 -30 41 -73 50 -95 l16 -40 -52 50 c-58 56 -168 216 -216 315 -128 261 -124
673 10 1083 35 107 148 357 162 357 3 0 4 -27 2 -59z m-603 -172 c-6 -16 -4
-20 6 -14 10 6 9 2 -2 -11 -22 -28 -37 -66 -33 -89 2 -11 -4 -27 -13 -37 -10
-11 -13 -26 -9 -43 4 -16 3 -24 -3 -21 -5 4 -7 -3 -3 -16 3 -11 1 -19 -4 -16
-5 4 -9 -8 -10 -25 -1 -88 -27 -493 -31 -497 -23 -25 -31 200 -13 364 6 50 22
135 37 190 26 101 71 236 80 236 2 0 1 -10 -2 -21z m736 -534 c5 4 9 -1 9 -9
0 -9 -7 -16 -15 -16 -9 0 -15 -9 -15 -21 0 -14 5 -19 14 -16 11 5 14 -16 15
-110 2 -133 11 -215 41 -363 28 -137 28 -134 8 -138 -13 -2 -21 12 -37 63 -39
126 -55 243 -55 410 -1 149 12 274 22 217 2 -12 8 -20 13 -17z m-844 -277 c-3
-8 -6 -5 -6 6 -1 11 2 17 5 13 3 -3 4 -12 1 -19z m1067 -181 c2 2 23 -55 46
-129 23 -73 61 -174 85 -225 58 -123 172 -288 250 -362 36 -33 59 -61 52 -64
-8 -3 -3 -12 12 -26 37 -33 11 -25 -47 15 -72 48 -193 164 -249 238 -77 102
-161 299 -208 482 -20 84 -21 83 19 74 19 -4 37 -6 40 -3z m304 -432 c-3 -3
-9 2 -12 12 -6 14 -5 15 5 6 7 -7 10 -15 7 -18z"></path>
<path d="M5396 6193 c-6 -14 -5 -15 5 -6 7 7 10 15 7 18 -3 3 -9 -2 -12 -12z"></path>
<path d="M2958 5958 c-4 -98 -8 -114 -42 -182 -27 -55 -53 -90 -101 -134 -36
-33 -65 -62 -65 -66 0 -14 81 36 132 83 105 96 135 193 100 331 l-18 75 -6
-107z"></path>
<path d="M4296 5949 l-16 -27 48 -11 c26 -7 85 -27 132 -46 47 -18 117 -43
155 -55 67 -20 207 -82 403 -177 72 -35 96 -43 105 -33 31 31 -200 188 -388
263 -88 35 -374 117 -402 114 -12 0 -28 -13 -37 -28z"></path>
<path d="M2903 5898 c-7 -25 -29 -77 -48 -114 -33 -63 -34 -66 -10 -44 40 37
77 122 73 166 l-3 39 -12 -47z"></path>
<path d="M4090 5885 c-11 -30 3 -75 23 -75 20 0 47 33 47 56 0 46 -54 60 -70
19z"></path>
<path d="M4360 5841 c0 -12 116 -43 144 -39 30 3 36 21 10 26 -9 2 -14 -1 -10
-6 3 -6 -6 -5 -21 3 -31 14 -123 26 -123 16z"></path>
<path d="M3070 5343 c0 -40 78 -162 128 -199 32 -24 30 -20 -16 29 -29 31 -66
85 -82 119 -17 35 -30 58 -30 51z"></path>
<path d="M4100 5116 c0 -14 10 -32 22 -40 29 -21 35 -20 48 4 16 30 -4 60 -40
60 -25 0 -30 -4 -30 -24z"></path>
<path d="M4000 5029 c-9 -16 -8 -26 5 -45 15 -23 17 -24 46 -9 30 16 30 23 1
58 -20 23 -39 22 -52 -4z"></path>
<path d="M3872 4959 c-13 -5 -20 -13 -17 -19 8 -12 65 -13 65 -1 0 18 -25 29
-48 20z"></path>
<path d="M2401 4472 c-24 -24 -24 -25 -6 -38 26 -19 42 -17 55 5 23 45 -14 70
-49 33z"></path>
<path d="M2592 4444 c3 -28 5 -29 51 -28 91 1 88 43 -3 52 l-52 5 4 -29z"></path>
<path d="M2818 4403 c7 -3 16 -2 19 1 4 3 -2 6 -13 5 -11 0 -14 -3 -6 -6z"></path>
<path d="M2349 4328 c0 -2 -3 -17 -5 -35 -4 -25 -1 -33 17 -38 28 -9 41 6 37
41 -2 21 -9 30 -25 32 -13 2 -23 2 -24 0z"></path>
<path d="M6193 5922 c10 -10 17 -24 17 -31 0 -15 122 -177 186 -249 27 -30 60
-71 75 -93 14 -21 28 -37 31 -34 2 3 5 -1 5 -8 0 -6 12 -31 26 -54 75 -119
148 -312 173 -457 22 -132 15 -338 -16 -446 -12 -41 -23 -91 -26 -110 -4 -34
-3 -34 12 -15 38 47 94 226 109 347 21 168 -71 488 -199 696 -60 96 -201 287
-256 348 -48 53 -130 124 -143 124 -6 0 -3 -8 6 -18z"></path>
<path d="M6107 5770 c15 -19 50 -64 78 -100 122 -154 219 -303 280 -432 53
-113 104 -305 117 -440 6 -65 14 -118 18 -118 7 0 20 62 23 110 2 32 -11 147
-24 225 -34 196 -147 409 -350 660 -79 97 -120 134 -146 132 -22 -1 -22 -1 4
-37z"></path>
<path d="M6680 2789 c0 -5 5 -7 10 -4 6 3 10 8 10 11 0 2 -4 4 -10 4 -5 0 -10
-5 -10 -11z"></path>
<path d="M6725 3109 c-10 -30 0 -33 13 -4 6 14 7 25 2 25 -5 0 -12 -9 -15 -21z"></path>
<path d="M5706 2608 c-19 -71 10 -131 52 -109 26 14 62 59 62 77 0 48 -102 76
-114 32z"></path>
<path d="M5677 2438 c-39 -36 -92 -130 -84 -150 3 -8 9 -1 16 16 6 15 26 45
44 66 31 38 72 100 64 100 -2 0 -20 -15 -40 -32z"></path>
<path d="M4538 3159 c-33 -19 -15 -69 24 -69 26 0 45 44 28 65 -14 17 -28 19
-52 4z"></path>
<path d="M3495 1341 c-3 -5 -1 -12 4 -15 5 -3 11 1 15 9 6 16 -9 21 -19 6z"></path>
<path d="M7464 3765 c-7 -18 3 -35 21 -35 18 0 26 15 19 34 -8 20 -33 21 -40
1z"></path>
<path d="M7410 3475 c-20 -25 -8 -50 25 -50 21 0 31 5 33 18 4 21 -14 47 -33
47 -7 0 -18 -7 -25 -15z"></path>
<path d="M5050 791 c0 -15 6 -21 21 -21 25 0 22 33 -4 38 -12 2 -17 -3 -17
-17z"></path>
</g>
</svg><style>@media (prefers-color-scheme: light) { :root { filter: none; } }
@media (prefers-color-scheme: dark) { :root { filter: none; } }
</style></svg>