<svg version="1.1" viewBox="0 0 2048 1462" width="948" height="677" xmlns="http://www.w3.org/2000/svg">
<path transform="translate(524,637)" d="m0 0 2 3 3 20v11l-1 7v17l1 12 1 28 1 9 1 27 2 28 1 35 1 18 1 83 1 23 1 76-1 54-3 24-6 24-4 12 8-17 1 3-11 26-7 12-11 14-11 13-5 6-8 7-13 12-10 8-15 11-20 11-8 5-24 11-26 8-17 4-26 3h-40l-26-4-26-7-25-10-16-8-15-8-20-13-13-9-11-10-8-7-10-9-7-8-12-17-9-14-15-29-4-10-4-14-5-18-2-13v-57l4-19 5-17 10-24 11-23 9-13 9-9 7-8 13-13 17-12 16-9 24-9 19-5 13-2h39l20 5 29 12 11 7 14 12 6 7-4-2-10-9h-1l11 10 7 11 6 13 7 22 4 19 1 12v9l-1 11-1 2-2 13v3l8-20 3-17v-9l-3-25-5-16-6-10-12-15 4 2 5 4 7 10 7 14 5 21 1 9v11l-3 22-5 16-6 12-7 9-8 8-5 3-10 2-1-1 1-15 3-24 1-12v-24l-3-27v-12l-1-14-1-6 4 1v-2l-4-2-10-8-14-8-21-7-23-4h-13l-27 4-20 8-13 7-19 13-15 11-12 13-10 11-8 12-8 16-7 20-3 15-1 7-1 22-1 11 2 25 4 20 6 20 9 20 8 15 10 14 4 6 13 15 13 13 14 11 15 10 26 13 23 9 25 6 31 4h22l4-1 13-1 19-4 30-11 14-7 14-9 20-16 11-14 9-16 8-16 2-9 4-17 4-20 5-51 1-22v-26l2-17-1-40-1-12v-42l-1-48-4-26-1-11-1-5-4-2-16-6-17-6-5-3 3-2h18l12 2h9l3-6 2-12 2-27v-48l1-8-6 5-2-1 8-8 6-7 13-10 8-7 9-9 4-6 6-7zm-180 381 1 2zm-288 25v2l2-1zm1 6 1 4zm0 5 1 22 5 26 8 24 9 20 9 14 12 20 7 9h2v2l8 7 16 17 11 9 7 7 20 13 19 10 14 7 15 6 12 4 21 5h5l-3-2-21-6-30-12-17-8-17-11-17-12-11-9-15-14-7-7-11-14-10-14-11-18-7-12-8-19-5-16-7-33-2-15zm466 96 1 2z" fill="#281707"/>
<path transform="translate(815,149)" d="m0 0 1 2-2 10 1 7 10 16 7 8 11 14 6 10 7 16 6 11 4 5 4 1 8-6 8-8 9-11 3-3 3-5 10-9 18-12 16-12 6-5 10-6 17-9 4-2 4 2v6l-3 8 3 7 4 10 5 4 11 6 5 5 6 5 3 1 1 4 4 2v5l4 1 3 5 12 10 5 5 17 16 12 12v3l-33 1-3 1-1 6-4 9-4 4h39l7 3v15l6-1-1 7 5-2-1 7-12 35-14 37-8 18-10 19-7 14-10 19-8 14-7 9-6 9-8 11-5 6-5 4-5-1v-12l3-13 9-20 4-8 7-16 8-19 6-16 19-49 10-28 8-21 4-11-2-1-76-2-20-1-50-1-6-1-17-1-9-3-2-1 1 10 20 50 10 23 8 19 11 24 12 28 5 14 9 28 7 16 7 12 5 9v11l-3 5v3l4-2 7-6 8-13 4-6 16-14 11-10 8-7 36-36 4-1 2-4 8-7 12-13 5-5 10-9 3-3h2l2-4 12-13 7-8 3-3h2l2-4 15-15 7-9 48-48 1-2-9 1-6-1-35-1-2-1-4 1-3-1-14 1-7-1-2-1-4 1-15-1h-7l-2-1 2-6h9l1 1h54l21-1 18 1h23l-1 12 1 1 11 1 7-2 6-5 7-8 5-6 4-4 2-5 2 1v5l-11 13-35 35-7 8-9 10-19 19-8 7-13 12-3 4h-2l-2 4-14 14-7 8-55 55-8 6-9 11-32 32-8 7-7 6-3 4h-2v2h-2l-2 4-11 13-11 12-10 10-4 5h-2l-2 4-4 2-7-8-8-8-9-11-15-15-6-8-24-24-9-11-6-5-7-8-34-34-6-8-11-11-9-11-9-9-7-8v-2l-4-2-7-7v-2l-3-1-7-8-13-16-11-12-7-8-15-15-6-8-4-5-7-8-14-18-14-17-12-12-5-8v-6l3-3 5-3 9-7 11-10 8-7 13-12 11-9 16-14 7-7 6-4 7-7 8-6 8-7 9-6 8-4zm-13 33-7 7-8 7-12 11-9 8-9 11-7 7-8 7-10 9-11 9v3h9l5-1 2 1 40 1 27 4 17 2h17l3-3-2-6-12-18-10-16-8-12-8-11-3-5 5-12zm173 15-5 3-4 2-5 5-1-2-5 5-3 5-4 2-5 2-8 7-10 8-13 11-18 13-13 10-2 2v4l6-1 5-2h19l1 1 21 1 2-1v2h39 3l8-1 6 1v-2l7 2v-2l3 2 56 1 2 1h11l-1-4-13-9-14-11-10-9-8-7-11-9-14-12-14-14-6-4zm-243 94 1 4 9 10 7 7 9 11 12 12 9 11 17 17 6 8 7 8 6 8 7 7 8 10 13 13 32 40 9 11 22 22 7 8 29 29 11 8 2-1-7-9-8-10-7-9-7-8-1-4 2-2-2-11-6-20-9-20-9-21-8-16-9-21-9-20-14-29-5-13-2-11-1-11-4-2h-37l-1-1h-10l-17 1-36-4-11-2z" fill="#2A1908"/>
<path transform="translate(1761,690)" d="m0 0 18 2 11 3 3 2h-9l-6-2h-20l-10 3-9 6-8 7-7 10-3 8v18l4 17 9 21 3 5 8 15 8 9v2h2l7 9 4 4 8 16 8 14 1 3h2l5 5 7 6 7 11 5 10 9 11 7 9 10 14 8 19 8 13 6 16 3 5 4 19 6 15 3 16 7 32 4 31-1 16-6 26-3 22-6 18-2 9v1l10-17 8-19 7-24 3-14 2-12h1l-1 15-4 19-8 24-8 18-10 18-12 16-8 10-10 10-9 7-15 11-21 12-19 9-23 8-32 8-12 2-33 2h-10l-13-3-13-7-15-11-11-8-11-11-9-3-22-13-14-11-11-10-8-7-8-8-6-10-13-26-5-16-3-17v-2l-5-2-1-1v-13l3-8 6-4 5 1 3 5 4 20 7 19 9 17 10 15 9 12 9 8 8 6 13 9 11 7 26 16 17 10 12 6 6 5 9 3 5 2 13 2 19-1 6 1 9-2 14-7h2l1-3 34-17 16-11 10-8 10-10 8-10 11-16 6-12 6-16 6-23 2-17v-17l-1-31-4-22-7-33-1-5v-12l-16 12-13 6-8 3-20 1-9-1-16-5-8-4-7-4-2 6-3 2h-58l-15-1-13 3-1 1-9 1h-15l-14-5-14-8-13-12-7-10-9-20-4-19-2-15v-23l2-8 3-5-2-1 1-1 2-10 10-18 17-17 15-8 11-3 9-5 4-5 5-10 1-3v-11l-3-19-1-21-3-18-2-5 1-3 4 8-2-9-3-5-9-6-9-1-10 2-10 5-2 3 4 2 3 6 4 14 2 8v10l-3 6-7 6-7 2h-12l-9-4-5-5-4-12-1-9 2-9 5-12 8-10 7-8 7-6 12-5 14-4 16-1 15 3 20 7 10 6 7 7 7 15-1 4-7-13-9-9-16-7-11-4-14-2h-8l8 2 14 9 7 10 14 26 4 12v13l2 28 2 8 2 12 4 14 3 5v11l3 17 1 15 4 25 2 21 1 5v15l4 19 11 17 4 3-2-9v-7l2 2 4 13 3 5h6l5 4h5l1-2v-11l-7-51v-23l2-15 5-5 1 18 4 16 11 30 8 20 7 13 9 8 11 4 11 1 15-5 6-4 4-5 1-3v-15l-5-12-28-42-7-11-10-15-9-15-8-12-4-5-4-6-10-17-8-14-8-18-5-12-3-15v-20l2-9 10-21 7-10 11-11 16-8 3-1zm-136 47 1 3zm-10 97-5 5-3 4-3 10-3 6-3 25v32l2 26 3 15 5 14 7 8 1 1h13l6-4 5-6v-19l-2-4-2-10-1-10-1-2-1-9-1-4 1-25-3-12-1-9-1-3 5-12v-9h-6l-7 6-5 3 1-7 2-5v-5z" fill="#281707"/>
<path transform="translate(1246,564)" d="m0 0h6l-3 2-19 8-7 4-6 9-1 6v16l7 23 5 25 3 22 4 26v8l1 14 2 16 2 22 1 22 3 18 2 30 2 13 1 19 3 23 2 29 2 12 1 13 1 41 4 31v32l-3 34-4 17-5 16 1 5-4 8-2 1-4 12-10 13-8 6-13 11-16 11-12 7-15 5-9 2-16 2h-37l-16-5-16-8-6-7-1-3-1-13 3-5 6-4h16l4 1h65l11-3 8-6 9-11 7-16 2-11 3-21v-85l1-14-2-45-3-34-2-40-4-41-4-61-2-30-1-48-2-16-1-19 2-18v-26l-2-9-10 2-29 3-19 4-11 3h-4l1-6 4-6 7-6 16-8 23-5 56-10 10-2zm2 554 1 2zm-1 3 1 2zm-1 3 1 2z" fill="#271606"/>
<path transform="translate(819,710)" d="m0 0 19 3 15 5 10 6 8 6 4 8 1 3 2 15 3 9-1 6-1 3 3 1-3 3-7-11-11-12-11-7-4-2h-15l-4 3-4-1h-2l-2 6-1 14-1 38 2 20 1 116 4 53 4 20 3 6 4 2 10 2 2 2-1 5-4 2-19 2h-20l-17 2h-13l-6-2-9 3-29 3-26 1-7-8-5-13-2-13-4-53-1-82v-11l-1-10-1-66-2-27-2-15-2-5-8-3-21-3-1-1-1-9-5 2-8 4-2 5v15l1 21v25l-4 6-8 8-6 2h-14l-6-7-5-12-3-12-3-28-7-18-1-5 4-4 19-3 42-4 23-6 17-1 19 3 3 3 8 12 9 9 6 13 4 15 1 18 1 6 1 27 1 14 1 33 4 68 1 40 2 32 1 1 2 9 4 7 9 6 6-1 7 3v-2l10-7 2-5v-8l-3-12-2-34v-54l-3-38v-24l1-4-1-3 1-2h-2l-1-11 1-15-2-36-4-30-3-9-14-7-5-4-1-3 7-3 13-1 21-3 25-3z" fill="#271606"/>
<path transform="translate(957,702)" d="m0 0h13l14 3 15 6 11 8h-3l-16-8-8-2 8 11 3 2 3 8 6 10 2 10 5 10 5 15 3 22 2 27v45l3 43 2 69 3 14 3 6 8 7 9 4 9 1 6 2v2l-12 6-13 3-24 4-38 4-27 1-4 1h-7l-13-3-9-4-5-5-3-5-5-2-6-15-8-3v-9l3-2 3 5v3l1-1-1-13-7-28-3-17-2-15v-15l2-13 2-2 1 2 5-13 9-11 14-10 6-5 13-8 19-7 10-3 6-3 3-3h2l2-13v-11l-4-13-1-6v-16l1-12v-15l-7-14-6-7-9-4h-13l-6 3 1 7 7 25 1 14-3 5-14 7-9 1-12-3-6-5-1-2v-18l2-10 5-10 10-14 8-8 11-6 6-2 18-1zm17 133v3zm-5 23-15 6-7 8-10 21-4 11-2 10v7l-1 6 2 6 2 14 11 28 6 18 6 8 5 4 7 3 10 1 8-3 2-2v-10l-7-20-1-28-1-9v-47l-3-21-1-8-4-3z" fill="#271606"/>
<path transform="translate(252,451)" d="m0 0h24l22 2 30 3 29 6 26 7 12 5 17 8 18 10 13 7 10 7 7 6 2 4-1 1-9-1-16-6-17-8-15-5-17-5v2l-10-3-13-4-27-6-39-6-8-1h-32l-34 4-17 4-20 7-21 10-10 7-9 8-5 3-1-1-7 8-6 5-11 15-8 14-7 19-5 22-1 6v33l4 15 8 18 9 14 11 12 6 6v2l4 2 7 6 19 12 23 12 21 8 18 5 22 3h25l24-3 19-4 24-7 13-5 36-19 21-14 9-7 10-9 11-9 22-22 8-7 10-12 9-11 9-6 7-4 12-12 9-11 23-23 6-4 5-3 9-2 15-4 3 1-21 11-7 9-8 7-6 8-9 16-8 14-9 10-7 10-8 10-16 17-10 9-31 31-16 14-5 5-17 12-14 9-30 14-16 8-14 5-26 6-21 3-19 2h-18l-28-4-21-6-27-11-16-7-19-10-16-12-10-8-7-7-13-17-7-11-8-17-7-20-3-12v-7l2 1 2 10 4 14 9 21 8 15 7 11 7 7 8 7 13 11 12 10 13 8 20 9 8 3-16-8-12-7-17-12-11-9-12-11-14-16-8-13-8-14-6-15-6-23-1-4-1-8v-11h-2v-3h2l1-14 4-16 8-20 6-12 7-11 10-14 9-9 7-8 8-7 6-5 15-10 11-7 16-8 16-6 26-7zm-63 316m3 1m3 1 3 2 16 5 25 5h9v-1l-25-5-24-6z" fill="#2C1B0A"/>
<path transform="translate(1343,693)" d="m0 0h21l16 4 12 5 8 5-2 1-15-7-18-4h-9l-13 4-8 6-7 14-5 17-1 13 2 55 1 8 1 23 5 46 4 45 5 38 4 15 4 8 10 7 14 7h6l9-5 4-5 5-16 3-30v-48l-3-65-1-12-3-32-7-38-4-17-6-12-7-8-6-3-10 1-7 6-3 6-1-3 5-9 7-7 6-4 8 1 16 8 8 7 9 12 7 9 4 7-1 5 3 5 7 6 5 15 8 18 5 19 8 36 1 15 5 34v30l-1 14-3 12-5 13-9 16-4 7-7 7-19 12-9 3-9 2h-26l-12-5-12-6-14-12-8-7-7-9-9-17-11-30-4-12-6-31-1-4v-17h1l1-10v-9l-1-3-2 2-2-7 2-13 1-13v-18l5-25 9-27 9-17 9-12 9-8 12-7zm66 54m-131 132 1 3zm1 3 1 11 2 4-1-11zm3 15v5h1v-5zm1 6 1 4zm1 5 1 4zm1 4 1 4zm64 95m4 1 1 2 3-1z" fill="#261506"/>
<path transform="translate(1612,692)" d="m0 0 14 2 16 5 14 6 10 9 8 16-1 4-7-13-9-9-16-7-11-4-14-2h-8l8 2 14 9 7 10 14 26 4 12v13l2 28 2 8 2 12 4 14 3 5v11l3 17 1 15 4 25 2 21 1 5v15l4 19 11 17 4 3-2-9v-7l2 2 4 13 3 5h6l5 4h5l1-2v-11l-2-15v-6l2 2 4 23 5 9 20 9 17 6v1h-8l-16-5-8-4-7-4-2 6-3 2h-58l-15-1-13 3-1 1-9 1h-15l-14-5-14-8-13-12-7-10-9-20-4-19-2-15v-23l2-8 3-5-2-1 1-1 2-10 10-18 17-17 15-8 11-3 9-5 4-5 5-10 1-3v-11l-3-19-1-21-3-18-2-5 1-3 4 8-2-9-3-5-9-6-9-1-10 2-10 5-2 3 4 2 3 6 4 14 2 8v10l-3 6-7 6-7 2h-12l-9-4-5-5-4-12-1-9 2-9 5-12 8-10 7-8 7-6 12-5 14-4zm13 45 1 3zm-10 97-5 5-3 4-3 10-3 6-3 25v32l2 26 3 15 5 14 7 8 1 1h13l6-4 5-6v-19l-2-4-2-10-1-10-1-2-1-9-1-4 1-25-3-12-1-9-1-3 5-12v-9h-6l-7 6-5 3 1-7 2-5v-5z" fill="#261505"/>
<path transform="translate(819,710)" d="m0 0 19 3 15 5 10 6 8 6 4 8 1 3 2 15 3 9-1 6-1 3 3 1-3 3-7-11-11-12-11-7-4-2h-15l-4 3-4-1h-2l-2 6-1 14-1 38 2 20 1 116 4 53 4 20 3 6 4 2 10 2 2 2-1 5-4 2-19 2h-20l-17 2h-13l-6-2-9 3-29 3-26 1-7-8-5-13-2-13-2-28v-8h1l1 5 3 37 4 15 5 8 1 1 2-4 8 2 9 1h20l20-2 5-2 1-4h2v-2l10-7 2-5v-8l-3-12-2-34v-54l-3-38v-24l1-4-1-3 1-2h-2l-1-11 1-15-2-36-4-30-3-9-14-7-5-4-1-3 7-3 13-1 21-3 25-3z" fill="#261505"/>
<path transform="translate(499,391)" d="m0 0h30l1 1 16 1 2 1 13 1 15 3 37 6 13 2 5 1h10l4-1h29l22 5 19 7 18 8 23 14 31 21 10 8 19 19 9 13 16 24 13 16 7 10 10 17v3l-5-1-12-7-18-6-18-7-26-7-24-5-63-12-24-7-50-18-24-8 3-2 12 1 22 3 24 7 24 8 34 7 43 7 28 7 25 9 16 9 11 7 6 5-7-12-9-11-9-8-17-10-30-14-45-16-21-9-30-15-27-14-16-8-13-5-26-8-19-6-22-5-35-4-20-1h-22l-21 3-32 9h-13l5-5 15-10 15-9 20-8 8-2 12-1zm155 38 1 4 9 8 14 11 16 8 21 9 30 11 29 12 46 21 2-1-5-7-11-9-16-11-17-11-21-13-23-12-17-9-21-8-13-3z" fill="#BEA05F"/>
<path transform="translate(1638,477)" d="m0 0 27 1 28 2 31 6 23 5 26 8 25 11 20 9 17 9 17 12 15 11 22 18 15 14 4 5 9 11 12 13 12 20 8 16 10 21 7 21 4 17 2 16v29l-5 21-8 20-6 11-10 14-11 12-8 7-10 6-14 6-22 6h-23l-6-3-3-3 1-3 16-4 15-5 15-8 11-9 7-7 10-15 6-13 5-15 4-22 1-20-3-20-4-17-9-25-15-27-7-11-12-13-11-14-11-11-17-13-13-10-15-9-27-14-25-12-24-9-22-6-21-4-16-2-47-3h-38l-39 4-14 2-19 2-44 8-30 8-24 7-36 8-21 7-16 7-27 6-17 4 2-4 8-7 21-13 32-16 21-11 20-8 19-6 23-6 27-6 28-5 12-3 37-4 33-3 30-1zm-20 5-40 4-8 1-7 4h-3v2l-7-2-1 2-11 4-12 1-15 2-10 4v2l-6 2-3 2v2h12l48-6 31-3 12-1h39l31 1 34 4 36 6 20 6 22 9 31 15 16 9 14 9 11 9 10 8 16 14 9 11 7 7 9 11 11 15 9 15 9 17 7 20 1 7 1 1 1 13 1 2 1 14 1 4v13l-2 18-6 24-4 15v15l2 3 5-1 8-8 7-11 7-15 6-18 1-9v-28l-1-16-7-27-6-16-12-25-8-14-9-12-9-11-7-9-35-35-11-7-16-12-15-10-26-15-23-12-23-9-29-7-42-6-19-2z" fill="#B99C5B"/>
<path transform="translate(1510,691)" d="m0 0h9l-1 2-15 7-14 4-8 1 4 16 6 12 5 3 1 6 1 24 3 9 4 20 3 6 3 18-1 4 4 8 3 9 1 7 1 27 1 2 1 19 1 3 5 65 2 11 4 11 3 5 5 1 2-6 2 3 2 4 13 2 2 3-3 5-6 2-19 2-17 1-2 1-8-1-2-1-1 2-1-1h-8l-18 2-2-4 6-10v-57l-5-41-2-12-1-26-1-6v-28l-1-8-1-26-2-16-1 7h-1l-1-13v-14l-4-31-3-8-9-3-4-3 1-4 2-2 14-4 26-3 15-3z" fill="#291807"/>
<path transform="translate(1441,399)" d="m0 0h31l14 1-2 4-13-1-4 1-2-1-6 2-3 3-10-1-3 1-1 2-4-1v-2l-3 1v3l5 1 3 1v2h13v-2l13-1 40 2 18 3 24 6 20 7 13 5 6 5 5 2 5 6-10-1-16-4-17-4-19-5-27-5-12-1h-32l-24 4-20 7-30 14-16 8-11 7-3 1 2-4 16-10 15-11 3-1v-2h2l1-6-4-1-3-10-26 6-43 7-16 4-13 6-18 10-16 9-23 11-21 7-26 8-22 6-17 7-23 12-10 8-11 10-11 9-22 22-5 3-2-1 6-9 9-12 12-17 8-10 3-5 14-18 2-3h2l2-4 10-10 14-11 11-9 13-10 21-13 12-7 24-11 19-6 18-4 1-1 18-1h5l2-1h32v2l-1 1 16 4 4 2v-2l6 1v-2l11-4 6-2 22 1 7-2 21-4zm-22 6-11 1-9 2-3 2-1 6 2 2h8l14-6v-2l4 2 2-3-2-4zm-104 4m116 0 1 2zm-11 2m-147 19-16 3-15 5-30 12-21 10-9 6-15 9-15 10-16 12-11 11-8 12 2 2 8-6 15-11 27-14 34-12 45-13 15-6 17-11 15-11 9-5 1-2-5-1z" fill="#BC9F5E"/>
<path transform="translate(1246,564)" d="m0 0h6l-3 2-19 8-7 4-6 9-1 6v16l7 23 5 25 3 22 4 26v8l1 14 2 16 2 22 1 22 3 18 2 30 2 13 1 19 3 23 2 29 2 12 1 13 1 41 4 31v32l-3 34-4 17-5 16 1 5-4 8-2 1-4 12-10 13-8 6-13 11-16 11-12 7-15 5-9 2-16 2h-37l-16-5-16-8-6-7-1-3-1-13 3-5 6-4h16l5 2-3 1-16-1-6 3-1 1 1 8 5 6 8 6 13 6 15 5 11 1h36l21-4 8-4 9-7 10-9 10-10 6-8h2l2-4 10-14 8-17 5-16 3-14 1-8v-27l-1-18-2-8v-5l-2-1 1-3h-2l-4-10-2-15 2-4v-13l-1-5-3-27-3-9-2-19 1-10-1-10-1-5v-14l-2-16-2-4-1-12-2-6-4-18-4-30-8-56-3-17-2-26-2-19-3-23v-31l-1-9-3-6-2-5-1-3-3-3-3 1v2l-8-1-8-3h-8l-2-2 6-1 10-1 2 1 1-4 9-1 4-1v-2l-11 2-4 1-19 3h-7v-1l44-8 17-3 10-2zm-53 12m55 542 1 2zm-1 3 1 2zm-1 3 1 2z" fill="#BD9F5D"/>
<path transform="translate(1761,690)" d="m0 0 18 2 11 3 3 2h-9l-6-2h-20l-10 3-9 6-8 7-7 10-3 8v18l4 17 9 21 3 5 8 15 8 9v2h2l7 9 4 4 8 16 8 14 1 3h2l5 5 7 6 7 11 5 10 9 11 7 9 10 14 8 19 8 13 6 16 3 5 4 19 6 15 3 16 7 32 4 31-1 16-6 26-3 22-6 18-2 9v1l10-17 8-19 7-24 3-14 2-12h1l-1 15-4 19-8 24-8 18-10 18-12 16-8 10-10 10-9 7-15 11-21 12-19 9-23 8-32 8-12 2-33 2h-10l-13-3-13-7-15-11-11-8-11-11-9-3-22-13-14-11-11-10-8-7-8-8-6-10-13-26-5-16-3-17v-2l-5-2-1-1v-13l3-8 6-4 5 1 3 5 4 20 7 19 9 17 10 15 6 8-1 2-6-7-8-12-10-13-9-17v-4l-2-1v-3h-2l-1-3h-2l1 15 4 17 4 8 7 10 8 11 9 10 7 9 8 8 14 11 15 12v2l6 2 12 6v2l5 2 12 10 2 1v2l4 2 15 9 13 5 21 3 11 1h19l1 1v-1l15-1 16-4 21-8 14-6 16-8 9-5 8-5h4v-2h2l1-2 4-2 5-2 1-2h2l2-5h2v-2l5-5 2-5 3-6 4-16 3-10 5-22 2-5 4-21 3-11 1-5 2-20-2-2v-5-4-28l-5-35-5-24-4-10-5-17-4-14-9-17-8-17-7-11-12-16-7-11-7-10-5-8v-3l-3-1-3-5-5-6v-2h-2l-8-12-3-3-7-11-10-18-8-13-1-4-2-1-6-11-5-13-3-8-2-13v-10l4-16 7-11 9-10 9-6 2-1-1-2 8-3z" fill="#BFA262"/>
<path transform="translate(633,845)" d="m0 0h2l-3 15v61l-1 23 1 46 2 18 2 6 2-10h1l2 13 3 6 8 5 13 2v4l-10 5-6 4-7 2-18 2h-17l-12-6-8-6-7-7-2-5-2-11-2-6-1-7v-71l4-25 3-10 5-12 11-13 10-9z" fill="#261506"/>
<path transform="translate(981,161)" d="m0 0 5 2v6l-3 8 3 7 4 10 5 4 11 6 5 5 6 5 3 1 1 4 4 2v5l4 1 3 5 12 10 5 5 17 16 12 12v3l-33 1-3 1-1 6-4 9-4 4h39l7 3v15l6-1-1 7 5-2-1 7-12 35-14 37-8 18-10 19-7 14-10 19-6 10-1-2 9-17 4-11 7-14 5-18h-2v-23l1-7 1-2 1-13 2-4 1-8 8-25 3-9 6-15 5-10h-32l-29-2-63-3-12-3-13-5-2-2-9-3-11-2h-17l-6-2 1-3-1-2v-6l5-8h2v-2h2l2-4 3-1 2-4 5-5 4-2v-2l4-4h2l2-4 8-15 4-10 9-10 10-8 14-11 7-5-1-2 17-9zm-6 36-5 3-4 2-5 5-1-2-5 5-3 5-4 2-5 2-8 7-10 8-13 11-18 13-13 10-2 2v4l6-1 5-2h19l1 1 21 1 2-1v2h39 3l8-1 6 1v-2l7 2v-2l3 2 56 1 2 1h11l-1-4-13-9-14-11-10-9-8-7-11-9-14-12-14-14-6-4z" fill="#BC9F5E"/>
<path transform="translate(963,1161)" d="m0 0h21l17 1 17 3 7 3 6 7 1 5-14-1-5-1h-23l-24 2-17 3-19 2-28 6-27 9-29 13-17 9-28 17-14 11-12 9-13 11-14 11-10 7-13 8-14 6-16 4-28 4h-24l-16-3-11-5-9-6-6-6v-2h9l4 1h31l32-1 17-3 20-7 19-10 19-14 14-13 9-7 11-9 17-13 15-10 23-12 16-7 24-8 23-6 28-5 16-2z" fill="#2C1B09"/>
<path transform="translate(1359,705)" d="m0 0h7l10 5 12 11 7 10 8 20 6 25 4 21 5 24 4 36 1 20 3 16 4 14 3 11 4 10 3 10 1 20-4 12-8 15h-2l-1 4-4 2-1 3-13 10-16 6-13 2-13-1-15-5-10-5-7-6v-2l3-1 15 8 15 5h13v-2h4v-3l6-5 4-10 3-16 2-22v-48l-3-65-1-12-3-32-7-38-4-17-6-12-7-8-6-3-10 1-7 6-3 6-1-3 5-9 10-7z" fill="#271506"/>
<path transform="translate(796,1103)" d="m0 0h17l56 3 2 1 9 1 2 1 12 2 32 8 30 9 44 16 12 6 6 4v2l-10-1-26-5-23-4-54-16-26-6-40-1-11-1h-28l-11 1-23 1-50 7-42 9-16 5-13 6-39 20-12 5-10 5-7 1 4-8 16-16 16-12 10-6 20-9 15-6 20-6 24-6 29-5 16-2z" fill="#2E1D0B"/>
<path transform="translate(1612,692)" d="m0 0 14 2 16 5 14 6 10 9 8 16-1 4-7-13-9-9-16-7-11-4-14-2h-8l8 2 14 9 7 10 14 26 4 12v13l2 28 2 8 2 12 4 14 3 5v11l3 17 1 15 4 25 2 21 1 5v15l4 19 11 17 4 3-2-9v-7l2 2 4 13 3 5h6l5 4h5l1-2v-11l-2-15v-6l2 2 4 23 5 9 20 9 17 6v1h-8l-16-5-8-4-7-4-2 6-3 2-3-1 2-1 1-3-6-2-7-5-14-3-15-11-6-8-4-10-2-10-6-21-8-35-2-15-2-27-5-49-5-45-2-15-3-14-7-13-5-6-10-5-6-1h-8l-8 2-12 6-1 4 4 1-5 5 4 2 3 6 4 14 2 8v10l-3 6-7 6-7 2h-12l-9-4-5-5-4-12-1-9 2-9 5-12 8-10 7-8 7-6 12-5 14-4z" fill="#BFA363"/>
<path transform="translate(1261,1144)" d="m0 0h40l14 1 13 4 3 2v2h-5l38 17 14 9 10 7 11 7 11 8 14 9 15 11 19 14 16 10 20 11 14 8 18 10 16 6 20 6 6 4-3 2-4 1h-20l-17-5-16-6-16-8-21-11-20-12-15-10-16-12-19-14-21-12-23-11-34-13-15-5-28-5-30-5-10-3-1-3 9-11 3-2z" fill="#32200D"/>
<path transform="translate(1113,920)" d="m0 0h16l11 4 7 5 9 13 6 10 4 12 1 9v14l-2 8-5 10-9 9-10 5h-19l-14-7-10-10-7-11-6-14-3-12v-12l5-14 6-8 8-6 6-3z" fill="#271606"/>
<path transform="translate(260,562)" d="m0 0 20 1 9 4 7 4-3 1-7-1 10 11 6 13 3 11 1 15-2 11-5 10-8 7-10 4-13 2h-7l-10-6-9-5-10-9-7-7-4-6 6 12 8 8 9 6 13 5-4 1-14-5-9-7-8-9-6-12v-11l4-20 4-8 4-5 9-7 10-5zm-42 48 1 9h1l-1-9z" fill="#271606"/>
<path transform="translate(499,391)" d="m0 0h30l1 1 16 1 2 1 13 1 15 3 37 6 13 2 5 1h10l4-1h29l13 3 8 3 19 7 17 9 14 7 6 4-3 2-6 1-10-6-10-4 2 4 12 7 33 18 19 10 10 7 6 4v2l5 2 10 10 2 5-2 3-5-3v-2h-2v-2l-4-2-9-6-7-6-21-14-28-15-19-9-17-9-8-4-10-4-12-5-13-4h-38v2l-8 3h-5l3-2 4-2-10 3-12 1h-10l-20-5-1-1-9-2-8-2-12-1h-51v2l-21 3-32 9h-13l5-5 15-10 15-9 20-8 8-2 12-1z" fill="#2D1C0A"/>
<path transform="translate(1359,702)" d="m0 0 8 1 16 8 8 7 9 12 7 9 4 7-1 5 3 5 7 6 5 15 8 18 5 19 8 36 1 15 5 34v30l-1 14-3 12-5 13-9 16-4 7-7 7-19 12-9 3-9 2h-26l-12-5-12-6-14-12-8-7-7-9-9-17-11-30-4-12-6-31-1-4v-17h1l1-10v-9l-1-3-2 2-2-7 2-13 1-13v-18l2-12h1l1 60 2 37 5 28 4 17 10 25 6 14 9 14 14 14 11 9 10 5 15 5 13 1 13-2 16-6 10-8 8-7 1-3h2l2-6 6-12 2-1-1-3 2-7-1-18-3-10-6-16-4-17-3-11-2-22-1-12-3-29-6-27-5-28-6-21-7-16-9-11-9-8-9-4h-7l-10 5 4-5zm50 45m-131 132 1 3zm1 3 1 11 2 4-1-11zm3 15v5h1v-5zm1 6 1 4zm1 5 1 4zm1 4 1 4zm64 95m4 1 1 2 3-1z" fill="#BEA15F"/>
<path transform="translate(524,637)" d="m0 0 2 3 3 20v11l-1 7v17l1 12 1 28 1 9 1 27 2 28 1 35 1 18 1 83 1 23 1 76-1 54-3 24-6 24-4 12 8-17 1 3-11 26-7 12-11 14-11 13-5 6-8 7-13 12-10 8-15 11-20 11-8 5-24 11-26 8-17 4-26 3h-40l-26-4-26-7-25-10-16-8-15-8-20-13-13-9-11-10-8-7-10-9-7-8-12-17-9-14-15-29-4-10-4-14-5-18-2-13v-57l4-19 5-17 5-12 1 3-6 20-2 8-1 21v18l1 21-2-4v-5h-2l1 8 1 14 5 26 8 24 9 20 9 14 12 20 6 7v2h2v2l4 2 11 11 7 8 10 9 8 7 11 8 13 8 17 9 14 7 15 6 12 4 21 5-24-8-2-2 6 1 20 6 20 4 24 3h20l21-2h11l28-7 19-7 10-5 14-5 11-8 14-7 3-3 5-3 11-9 14-12 4-2 2-4 7-8 12-17 7-10 12-27 6-15 3-8 3-19 1-10 1-43v-39l-2-30-2-45v-42l-2-29-1-10-1-7-1-1-1-16v-5h-1l1-11h-2l1-8-2-1 1-11v-21l1-5-2-1v-11l-3-12-1-14h-1l-1-16-2-11-1-25h1l1 6-1-13-1-4-2 1-1-7v-7l9-11zm-468 406v2l2-1zm1 6 1 4zm466 101 1 2z" fill="#BEA05F"/>
<path transform="translate(1270,283)" d="m0 0 2 1v5l-11 13-35 35-7 8-9 10-19 19-8 7-13 12-3 4h-2l-2 4-14 14-7 8-55 55-8 6-9 11-32 32-8 7-7 6-3 4h-2v2h-2l-2 4-11 13-11 12-10 10-4 5-2-1 9-11 15-15 6-8 7-8 11-13 11-10 22-22 8-7 19-19h2v-2h2l2-4 8-8 4-9v-8l6-18 3-5 4-6 8-8h2l2-5 3-4h2l2-5 16-17 12-14 2-3h2l2-4 42-42 7-8 3-4-32-1-22-1v-1l21-1 18 1h23l-1 12 1 1 11 1 7-2 6-5 7-8 5-6 4-4z" fill="#BD9F5D"/>
<path transform="translate(855,1140)" d="m0 0h28l25 3 19 5 10 5 1 2h-23l-10-1-10 1h-24l-21 2-26 5-30 7-13 3-31 7-14 4-20 7-23 10-21 11-13 9-12 11-12 15-4 8-3 9h-2l-2-12 5-15 8-13 18-18 19-13 13-8 13-7 9-3 14-6 16-6 23-7 25-5 27-5 22-3z" fill="#32200D"/>
<path transform="translate(819,710)" d="m0 0 19 3 15 5 10 6 8 6 4 8 1 3 2 15 3 9-1 6-1 3 3 1-3 3-7-11-11-12-11-7-4-2h-15l-4 3-4-1h-2l-2 6-1 14-1 38 2 20 1 116 4 53 3 15v5l-2-3-5-13-2-21-1-19-4-23-1-13-2-44-4-26-2-37-1-16v-41l3-7 4-6v-7l-3 1-3 6-3-1v-16l5-8 3-4-11 1-14 5h-7l-12-2h-19l4-2 13-1 21-3 25-3z" fill="#BD9F5D"/>
<path transform="translate(1343,693)" d="m0 0h21l16 4 12 5 8 5-2 1-15-7-18-4h-9l-13 4-8 6-7 14-5 17-1 13 2 55 1 8 1 23 5 46 4 45 5 38 4 15 4 8 10 7 5 4-5-1-11-7-7-8-9-19-4-11-2-6-2-12-2-18-5-19-2-7-5-23-1-14 1-1-2-11-1-3-1-9-2-11-1-8v-7l1-3-2-1-1-7 1-3-2-5-1-11 1-21 4-16 6-12 7-10 7-8 8-7 11-5-2-2z" fill="#BDA05E"/>
<path transform="translate(509,474)" d="m0 0 6 1 6 4v2l12 3 19 9 34 14 28 12 49 16 24 9 27 9 25 6 60 10 54 8 20 4 2 1-1 3-16-1-66-1-17-2-44-9-28-8-21-8-27-12-25-7-20-6-15-6-13-6-19-8-40-18-11-6-3-6-3-2 3-1-1-3z" fill="#35230F"/>
<path transform="translate(1504,697)" d="m0 0 3 1-10 4-16 3 4 16 6 12 5 3 1 6 1 24 3 9 4 20 3 6 3 18-1 4 4 8 3 9 1 7 1 27 1 2 1 19 1 3 5 65 2 11 4 11 1 4-6-3-7-11-5-10-4-16 1-5h-2l-1-8 1-2-3-13-1-3-1-4 1-1v-4l-2-1 1-3-2-14-2 4v-10l-2-4v-3l1-2h-2l1-6h-2l-2-12-3-25v-6l-1-5-1-6-2-11-3-30-4-30-5-22-6-15v-4l16-3 15-3z" fill="#BFA261"/>
<path transform="translate(639,719)" d="m0 0h5l-2 6-10 5-2 5v15l1 21v25l-4 6-8 8-6 2h-14l-6-7-5-12-3-12-3-28-7-18-1-5 4-4 19-3z" fill="#281607"/>
<path transform="translate(299,875)" d="m0 0 5 2 11 8 15 14h-3l-7-7-4-2 10 9 7 11 6 13 7 22 4 19 1 12v9l-1 11-1 2-2 13v3l8-20 3-17v-9l-3-25-5-16-6-10-12-15 4 2 5 4 7 10 7 14 5 21 1 9v11l-3 22-5 16-6 12-7 9-8 8-5 3-10 2-1-1 1-15 3-24 1-12v-24l-3-27v-12l-1-14-1-6 4 1v-2l-4-2-10-8-10-6 2-1 12 7 13 9 1-3-1-4h-2l-4-6-10-8-9-7-2-3zm45 143 1 2z" fill="#BEA15F"/>
<path transform="translate(1059,301)" d="m0 0h12l1 2-8 16-3 10-3 7-8 26-1 7-1 2v6l-2 4v6l-1 1-1 12-1 18h2l-4 18-5 10-5 11-4 10-6 11-3 7-6 8-6 9-8 11-5 6-5 4-5-1v-12l3-13 9-20 4-8 7-16 8-19 6-16 19-49 10-28 8-21 4-11-2-1-76-2h-6l-2-2h67v-2z" fill="#2E1D0B"/>
<path transform="translate(957,702)" d="m0 0h13l14 3 15 6 11 8h-3l-16-8-8-2 8 11 3 2 3 8 6 10 2 10 5 10 5 15 3 22 2 27v45l3 43 2 69 3 14 1 5-3-3-6-21-1-6v-9h-2v-7l-2-14-2-8v-11l-1-17v-12l-2-18-1-6v-8h-2l-1-9v-7h-1l-2-12v-3-7l-1-4-2-27-3-22-1-8-5-22-7-14-6-8-5-3-12-2h-16l-7 3-14 8-10 6 2-5 5-6 6-4 3-1 4-4 7-3h8v-2l7-1z" fill="#BD9F5E"/>
<path transform="translate(1469,561)" d="m0 0h11l11 4 9 6 9 11 5 10 2 8v20h-2l-1-22-5-12-8-10-9-7-5-2h-10l-4 2-6 9-1 8 2 9 4 6 8 9 10 15 11 12 8-1-2 4-6 5-10 5-11 2-6-1-9-3-6-4-9-10-10-13-5-11v-10l4-13 5-9 9-10 9-5z" fill="#BFA261"/>
<path transform="translate(1782,531)" d="m0 0 6 2 25 12 16 7 12 8 11 9 10 8 16 14 11 13 11 12 13 17 11 18 9 17 7 20 1 7 1 1 1 22 1 8v21l-3 16-2 8h-2l-1 7-5 13-6 11-7 9-12 13-12 10-11 7-10 4-1 2 25-2 13-4 14-9 2 1-6 7-17 8-17 5-8 2h-23l-6-3-3-3 1-3 16-4 15-5 15-8 11-9 7-7 10-15 6-13 5-15 4-22 1-20-3-20-4-17-9-25-15-27-7-11-12-13-11-14-11-11-17-13-13-10-11-7-3-3-22-12-16-8-3-2v-2l-2-1z" fill="#45331B"/>
<path transform="translate(1261,1144)" d="m0 0h40l14 1 13 4 3 2v2h-5l38 17 14 9 10 7 11 7 11 8 14 9 15 11 19 14 16 10 20 11 14 8 18 10 16 6 20 6 6 4-3 2-4 1h-20l-17-5-16-6-14-7 3-1 8 3v2l4-1 6 2v3l5 1 2 1v-2h5l1 2h5l-3-3-2 1-2-4-4-1-19-10-7-3-2-2-1-2-6-1-10-6-13-8-12-7v-2l-4-2-5-3v-2l-4-2-12-10-21-13-6-3v-2l-9-3-22-12-15-7-13-6-15-5-17-4-5-2-31-5-12-1h-17l-4 3 2-4 6-7 3-2z" fill="#BD9F5D"/>
<path transform="translate(1616,830)" d="m0 0h6l-1 5-3 8 4-1 4-4 6-1 3 4 1 13v18l1 42 2 25 1 12-2-1-3-13-1-10-1-2-1-9-1-4 1-25-3-12-1-9-1-3 5-12 1-9-7 2-6 5-6 3 1-8 3-10-6 3-4 6-3 10-3 6-3 25v32l2 26 3 15 5 14 7 8h13l6-4 4-5 1-14 2 4v19l-6 5-5 2h-7l-7-1-3-1v-2l-4-1-8-6-6-7-3-5-1-7-3-6-1-8-2-4v-6l-2-5-1-7-1-6h-1l-4-25 1-10 3-14 5-13 5-8 5-4 15-8z" fill="#BDA05E"/>
<path transform="translate(963,133)" d="m0 0h3l-1 3-18 6-7 3-7 1 1 2 14 3 10 5 2 3-2 3h-7l-4-1h-33l-7 1h-14l-1-1h-36l-10 5h-17l-5-5-4-7-1-6 3-3 25-5 11-1 2-1 25-1 5-1 56-1z" fill="#BDA05E"/>
<path transform="translate(1710,484)" d="m0 0 9 1 28 6 26 8 25 11 20 9 17 9 17 12 15 11 22 18 15 14 4 5 9 11 12 13 12 20 8 16 10 21 7 21 4 17 2 16v29l-5 21-8 20-6 11-10 14-11 12-8 7-2-1 2-3-14 9-13 4-17 1h-8l1-3 11-5 11-7 11-9 7-7 9-11 8-14 5-13 6-18 2-13v-21l-1-8v-9l2 2 1 14 1 4v13l-2 18-6 24-4 15v15l1 2 5-1 7-7 7-11 7-15 6-18 1-9v-28l-1-16-7-27-6-16-12-25-8-14-9-12-9-11-7-9-34-34-11-7-16-12-15-10-26-15-23-12-23-9-29-7-26-4v-2z" fill="#C0A465"/>
<path transform="translate(524,637)" d="m0 0 2 3 3 20v11l-1 7v17l1 12 1 28 1 9 1 27 2 28 1 35 1 18 1 83 1 23 1 76-1 54-3 24-3 13-2 1 1-6 3-19 1-10 1-43v-39l-2-30-2-45v-42l-2-29-1-10-1-7-1-1-1-16v-5h-1l1-11h-2l1-8-2-1 1-11v-21l1-5-2-1v-11l-3-12-1-14h-1l-1-16-2-11-1-25h1l1 6-1-13-1-4-2 1-1-7v-7l9-11z" fill="#BB9D5B"/>
<path transform="translate(1338,483)" d="m0 0h5l-2 5-5 5h-2v2h10l-4 5-16 6-15 4-24 8-20 4-51 4-35 3-25 5-20 6-16 6-13 9-5 4h-3l1-3 11-9 12-9 11-6 19-7 26-8 14-3 17-2 23-2 12-2 29-3 23-5 23-7 19-9z" fill="#BD9F5D"/>
<path transform="translate(1392,1096)" d="m0 0 32 1 17 3 13 5 5 5 2 5h-16l-25-1-8-1-39-1-23 1-29 4-31 4-28 4-1-2 6-7 12-6 15-4 27-5 27-4z" fill="#3D2A14"/>
<path transform="translate(1064,299)" d="m0 0h8l7 3v15l6-1-1 7 5-2-1 7-12 35-14 37-8 18-10 19-7 14-10 19-6 10-1-2 9-17 4-11 7-14 5-18h-2v-23l1-7 1-2 1-13 2-4 1-8 8-25 3-9 6-15 5-10-8-1z" fill="#BB9D5B"/>
<path transform="translate(671,712)" d="m0 0 17 1 12 3 9 14 9 9 6 13 4 15 1 18 1 6 1 27 1 14 1 33 4 68 1 40 2 32 1 1 2 9 4 7 9 6-3 1-6-4-6-8-3-6-1-7-2-12-1-27-1-11-1-28-3-29-1-18-1-4 1-6h-2v-7h-1l-3-23v-13l-2-16-2-6-1-8v-12l-3-16-1-7-2-4-2-6-7-11-5-6v-2l-5-2-9-7-6-5-2-3h-17l4-2z" fill="#BC9E5C"/>
<path transform="translate(938,704)" d="m0 0h11v2l-10 2-6 3h-2l-1 3-6 3-5 5-4 5 3-1 5-2 6-2 4-1-1 6 7 24 2 15-1 6-5 4-11 5-9 1-12-3-6-5-1-2v-18l2-10 5-10 10-14 8-8 11-6z" fill="#2F1E0C"/>
<path transform="translate(1503,1098)" d="m0 0 5 1 3 5 4 20 7 19 9 17 10 15 6 8-1 2-6-7-8-12-10-13-9-17v-4l-2-1v-3h-2l-1-3h-2l1 15 4 17 4 8 7 10 8 11 9 10 7 9 8 8 14 11 15 12v2l6 2 12 6v2l5 2 12 10 2 1v2l4 2 15 9 13 5 21 3 11 1h19l1 1v-1h13v2l-12 2-33 2h-10l-13-3-13-7-15-11-11-8-11-11-9-3-22-13-14-11-11-10-8-7-8-8-6-10-13-26-5-16-3-17v-2l-5-2-1-1v-13l3-8z" fill="#BDA05E"/>
<path transform="translate(910,864)" d="m0 0 2 1-8 8-8 12-3 11-1 8v19l6 34 6 26 8 20 6 11 8 8 14 7 7 2h24l19-3 11-3 14-2 38-2-2 2-13 3-24 4-38 4-27 1-4 1h-7l-13-3-9-4-5-5-3-5-5-2-6-15-8-3v-9l3-2 3 5v3l1-1-1-13-7-28-3-17-2-15v-15l2-13 2-2 1 2 5-13 9-11z" fill="#BEA05F"/>
<path transform="translate(1328,1136)" d="m0 0h41l17 3 25 6 37 14 16 8 15 10 10 9-2 1-25-9-28-7-48-16-36-10-18-4-13-1v-2z" fill="#BC9F5F"/>
<path transform="translate(675,452)" d="m0 0 9 4 10 3 21 9 30 11 29 12 35 16v2l6 2 15 8 8 9 4 6 4 2 4 5 5 4 5 7-1 2-7-8-6-2-2-4-4-1-7-7-13-8-17-9-23-10-42-15-21-9-30-15-15-8-1-4z" fill="#46331A"/>
<path transform="translate(1565,861)" d="m0 0 1 4-4 13v32l1 12 4 24 5 13 4 8v2h2l3 9 2 1-1 2h2l5 8 12 7 5 3 1 4-15-3-9-6-10-9-8-11-9-20-4-19-2-15v-23l2-8 3-5-2-1 1-1 2-10 5-9z" fill="#0F0906"/>
<path transform="translate(1773,1233)" d="m0 0 4 1 1 2v8l-4 6-5 5-7 3-14 5-11 1-8 2-17 1-9 1h-17l-17-2-12-4-5-3-13-4-2-3 8-1-3-3 5 2 5 4 9 3 5 2 13 2 19-1 6 1 9-2 14-7h2l1-3 18-9 2 1-2 2z" fill="#BDA05E"/>
<path transform="translate(250,469)" d="m0 0h18l39 1 24 2 10 2 27 7 30 11 10 4-4 1-17-5v2l-10-3-13-4-27-6-39-6-8-1h-32l-34 4-17 4-20 7-21 10-10 7-9 8-5 3-1-1-7 8-6 5-11 15-8 14-7 19-5 22-1 6h-1l1-13 5-20 8-19 7-12 7-9 10-13h2v-2h2l2-4 11-10 13-8 12-6 22-9 10-3 8-3 24-4z" fill="#BEA05F"/>
<path transform="translate(327,939)" d="m0 0 5 2v2h2l6 9 3 10 3 9 2 13v15l-1 1-3 14-6 12-6 5h-4v-2h-2l-1-7 2-23v-11l1-9-3-27v-11h2z" fill="#251405"/>
<path transform="translate(1942,709)" d="m0 0 2 2 1 14 1 4v13l-2 18-6 24-4 15v15l1 2 5-1 7-7 7-11 3-6h2l-2 6-8 13-11 14-10 10-4 3-2-1 2-3-14 9-13 4-17 1h-8l1-3 11-5 11-7 11-9 7-7 9-11 8-14 5-13 6-18 2-13v-21l-1-8z" fill="#BD9F5D"/>
<path transform="translate(69,637)" d="m0 0 2 1 2 10 4 14 9 21 8 15 7 11 7 7 8 7 13 11 12 10 13 8 20 9 8 3-16-8-3-3 9 3 19 8 26 8 29 6 15 2 22-1 21-2 16-3 25-7 14-5 3 1-15 8-20 6-25 5-33 4h-18l-28-4-21-6-27-11-16-7-19-10-16-12-10-8-7-7-13-17-7-11-8-17-7-20-3-12zm120 130m3 1m3 1 3 2 16 5 25 5h9v-1l-25-5-24-6z" fill="#BEA15F"/>
<path transform="translate(1612,692)" d="m0 0 16 4v1h-7l-10-2-19 4-11 6-8 6-6 5-3 4-1 5 4 1-4 8-2 17 3 7 1 3 5 2 9 4 9 2-4 5-9 3h-12l-9-4-5-5-4-12-1-9 2-9 5-12 8-10 7-8 7-6 12-5 14-4z" fill="#2F1D0B"/>
<path transform="translate(1160,202)" d="m0 0 7 6 8 8 8 7 6 7 8 7 12 10 17 12 13 11 9 9-3 2h-16l1-4-5-5-13-7-10-6-10-8-8-7-7-8-8-10-7-11-4-3-1 2-3-1 3-8z" fill="#2A1908"/>
<path transform="translate(1295,738)" d="m0 0 1 2-6 18-2 22-2 12v15l6 58 3 34 4 22 5 19 2 6v6l-1-2h-2l-8-17-6-21-4-20-2-14-2-63v-23l2-19 2-8 1-12 5-13z" fill="#0B0504"/>
<path transform="translate(1369,710)" d="m0 0 5 1 8 7 6 7 8 15 8 24 3 14 6 43v60l-3 27-1 2h-2l-1-57-1-31-4-34-7-33-6-19-6-12-7-8-6-5z" fill="#080302"/>
<path transform="translate(1191,748)" d="m0 0 2 2 2 16 3 16 1 14 1 26 2 24 2 17v10l2 11 1 12 3 11 2 23 2 38 2 27-1 13-3 5h-2l-1-44-5-47-5-60-4-41-4-55z" fill="#080302"/>
<path transform="translate(610,491)" d="m0 0 12 1 22 3 24 7 24 8 34 7v2l9 1-2 1-1 2-2 1-5 1-5 2h-10l-23-6-29-10-18-7-33-11z" fill="#392712"/>
<path transform="translate(1705,738)" d="m0 0 1 3-2 11v12l4 18 5 12 16 32 3 9v3l3-1 5 4 6 9 8 10 8 13 3 11 2 9h2l2 6 3 1 2 6h2l3 5 5 5 5 10v3h2v3h2v2h2l6 9 2 4h2l5 8 2 5 1 6v10l-2 7-6 7-7 4-3-1 8-5 4-5 1-3v-15l-5-12-28-42-7-11-10-15-9-15-8-12-4-5-4-6-10-17-8-14-8-18-5-12-3-15v-20l2-9z" fill="#BEA160"/>
<path transform="translate(466,810)" d="m0 0 3 2v2l4 2 4 6v94l-1 22 1 16h1v16l-1 31-1 6-1 53 2 5-2 19-3 12-2 11-1 15-3 16-7 20-10 19-2 1 2-6 8-16 2-9 4-17 4-20 5-51 1-22v-26l2-17-1-40-1-12v-42l-1-48-4-26-1-11z" fill="#BD9F5C"/>
<path transform="translate(990,153)" d="m0 0 38 3 19 3 29 7 28 5 21 6 8 4v3l-15-2-17-4-20-1-12-2-19-6-21-3-23-3-11-3-6-5z" fill="#402D15"/>
<path transform="translate(1465,563)" d="m0 0h15v2h-8l-10 3-6 5-4 10-2 10 3 14 5 10 9 10 6 6v2l4 2-1 3-5-1-5-3-2 2-1 2-5-1-11-11v-2h-2l-6-8-3-9 1-14 4-14 7-9 7-6 3-2z" fill="#2B1909"/>
<path transform="translate(822,145)" d="m0 0h12l8 9v2l7 2 9-3 9-2h53l25 3 5 2v2l-36 1-7 1h-14l-1-1h-36l-10 5h-17l-5-5-4-7-1-6z" fill="#311F0C"/>
<path transform="translate(1587,503)" d="m0 0h64l33 2 36 5 19 4 13 4 2 5-2 1-10-3-12-2-23-5-22-3-47-3h-38l-39 4-14 2-24 1 1-2 17-3 6-2z" fill="#37240F"/>
<path transform="translate(1769,697)" d="m0 0 8 1 14 8 9 9 8 14 9 22 4 12 4 4 2-5 1 4-1 5-7 6h-5l-8-21-9-21-6-11-8-9-13-8h-12l-5 3-2-1 7-7z" fill="#261505"/>
<path transform="translate(931,721)" d="m0 0 2 1-1 5 7 24 2 15-1 6-5 4-4 1-1-6-10-6v-2h-3l-4-8-2-7v-8l4-8 8-7z" fill="#BD9F5C"/>
<path transform="translate(726,518)" d="m0 0 12 1 31 5 28 7 25 9 12 7-2 1-17-8-7-3-1 2-9 1-2 1 12 4-4 1-30-7-53-10-5-1 4-2 5-2 7-2 1-1-7-2z" fill="#BEA15F"/>
<path transform="translate(1748,748)" d="m0 0 2 3 9 21 6 11 9 14 9 12 10 16 7 10 24 32 13 19 11 16 8 12 10 21 7 16 5 11 9 28 7 30 5 38v31l-1 9h-1l-1-45-6-36-6-26-7-21-9-21-10-20-2-5-5-8-8-14-6-9-9-13-10-13-14-21-12-16-11-17-17-26-8-14-8-19z" fill="#AB9057"/>
<path transform="translate(584,555)" d="m0 0 3 1-21 11-7 9-8 7-6 8-9 16-8 14-9 10-7 10-8 10-16 17-10 9-31 31-16 14-5 5-17 12-14 9-30 14-3-1 13-7 10-6 12-7 10-7 9-6 8-6h2v-2l15-11 16-15 2-3h2v-2h2v-2l8-7 12-11 7-8 3-4h2l2-4 6-7 5-8h2l2-6 7-10 10-16 8-10 8-11 21-21 4-1v-2l3-1-1-2z" fill="#BFA161"/>
<path transform="translate(981,194)" d="m0 0 5 1 12 9 10 9 24 22 3 2v2l4 2 11 10 10 8 10 10 5 3 2 2v3h-8l-2-5-4-2-12-8-13-11-16-14-11-9-14-12-14-14-3-2z" fill="#1C130A"/>
<path transform="translate(1113,920)" d="m0 0h16l11 4 7 5 9 13 6 10 4 12 1 9v14l-2 8-5 10-9 9-10 5h-19l-14-7-3-4 4 2 9 5 10 2h9l6-2 9-6 7-8 2-4v-9l-5-12-4-8-5-12-2-9-6-15-2-4-9-5-4-1h-12z" fill="#BEA05E"/>
<path transform="translate(68,972)" d="m0 0 1 3-6 20-2 8-1 21v18l1 21-2-4v-5h-2l1 8 1 14 5 26 8 24 9 20 9 14 12 20 3 4 1 5-10-10-10-14-17-33-4-10-4-14-5-18-2-13v-57l4-19 5-17zm-12 71v2l2-1zm1 6 1 4z" fill="#A98D53"/>
<path transform="translate(827,1221)" d="m0 0 2 1-28 17-14 11-12 9-13 11-14 11-10 7-13 8-14 6-16 4-28 4h-24l-16-3-11-5-9-6-6-6v-2h9l4 1h31l32-1 17-3 20-7 19-10h3l-11 8-8 4-10 4-15 4-22 3-56 1-2 1 1 2 14 7 16 3 10 1h14l21-3 14-3 13-2 16-8 14-10 10-8 9-7 14-12 8-6 17-12 17-10z" fill="#BD9F5C"/>
<path transform="translate(1074,1153)" d="m0 0h16l5 2-3 1-16-1-6 3-1 1 1 8 5 6 8 6 13 6 15 5 11 1h36l21-4 5-1v2l-17 6-9 2-16 2h-37l-16-5-16-8-6-7-1-3-1-13 3-5z" fill="#BD9F5D"/>
<path transform="translate(509,474)" d="m0 0 6 1 6 4v2l12 3 19 9 34 14 28 12 49 16 24 9 27 9 7 2-4 1-18-5-17-6-20-6-19-6-14-4-17-6-15-8-15-7-7-2-11-4-16-6-12-3 3 5 4 2-2 1-20-9-9-5-3-6-3-2 3-1-1-3z" fill="#C0A465"/>
<path transform="translate(1461,717)" d="m0 0h2l2 11 3 30 4 20 2 19 2 15 2 33 2 19 2 47 2 21v16l-1 12h-1l-1-5v-17l-5-41-2-12-1-26-1-6v-28l-1-8-1-26-2-16-1 7h-1l-1-13v-14l-4-31-1-6z" fill="#BEA160"/>
<path transform="translate(894,1112)" d="m0 0 8 1 24 6 30 9 44 16 12 6 6 4v2l-10-1-26-5-23-4-50-15 4-1 25 7 14 2h8v-2l-3-3-21-8-9-4-33-9z" fill="#C0A464"/>
<path transform="translate(1470,710)" d="m0 0 3 4 5 17 3 20 5 71 1 10 1 40-1 5-2-2-3-32-4-40-4-36-1-23-3-24z" fill="#080302"/>
<path transform="translate(815,149)" d="m0 0 1 2-2 10 1 7 10 16 7 8-1 2-9-10-5-5v-2h-2l-4-4-3-1-2 11-5 10-1-2 2-8-7 7-8 7-12 11-8 7-9 11-8 8-8 7-10 9-10 8-1 3 14-2 2 1 40 1 15 2v1h-13l-11-1-51-1 1-5 11-12 8-6 3-1v-2l12-9 29-29 8-7 3-1 2-5 8-10v-5l-5-5-1-3-2-1 16-9z" fill="#C0A465"/>
<path transform="translate(212,881)" d="m0 0h8v1l-12 2-20 8-13 7-19 13-15 11-12 13-10 11-8 12-8 16-7 20-3 15-1 7-1 22-1 11 2 25 4 20 5 17-1 3-5-15-5-22-2-21v-31l3-22 4-16 5-15 10-21 10-13 13-14 4-5 11-9 17-12 21-11 12-4z" fill="#BEA160"/>
<path transform="translate(1369,715)" d="m0 0 4 2 7 9 8 16 7 29 2 26 3 17 2 19v20l-1 10 2 7 1 6v13l-3 47h-1l-2-59-2-49-2-17-2-21-7-38-4-17-6-12-6-7z" fill="#BEA05F"/>
<path transform="translate(265,562)" d="m0 0 15 1 9 4 7 4-3 1-7-1 10 11 6 13 3 11 1 15-2 11-5 10-8 7-10 4-13 2h-7l-10-6 3-1 7 2h19l10-5 5-6 1-5-1-11-2-10-1-11v-14l-4-11-8-9-10-3-5-2z" fill="#BEA05F"/>
<path transform="translate(633,845)" d="m0 0h2l-3 15v61l-1 23 1 46 2 18 2 6 2-10h1l2 13 3 6 8 5 13 2v4h-2v-2l-10-1-18-7-4-6-1-6-2-46-1-69-2-35 1-9 2-3-1-2z" fill="#BDA05E"/>
<path transform="translate(1598,501)" d="m0 0h39l31 1 34 4 36 6 20 6 22 9 31 15 8 5-2 1-24-12-9-4-4 1 3 3 16 8 24 13 1 2-6-2-23-12-27-13-24-9-6-2 4-1 11 3-1-4-21-6-24-4-23-3-33-2h-64l-33 4h-7v-2l25-3z" fill="#C5AD77"/>
<path transform="translate(556,563)" d="m0 0h6l-4 6-13 12-8 8h-2l-2 4-7 8-3 4h-2l-2 4-66 66-7 4-1-3 23-23h2l2-4 22-22 8-7 14-15 4-5 4-7 25-25 6-4z" fill="#160F08"/>
<path transform="translate(576,908)" d="m0 0h1l-1 20-1 43 1 22 5 18 7 12 9 11 12 6 3 1h21l17-3 6-1-5 5-9 3-18 2h-17l-12-6-8-6-7-7-2-5-2-11-2-6-1-7v-71z" fill="#BFA262"/>
<path transform="translate(825,717)" d="m0 0 9 1 6 3 6 2 7 6 5 13-2 4-7-2-12-1-6 1v2l-7 1-1-20z" fill="#251405"/>
<path transform="translate(1217,474)" d="m0 0h5v2l-5 1v3h-2l1 3-4 1v2l-19 6-22 6-17 7-23 12-3 1v-4l16-11 25-13 34-12z" fill="#433018"/>
<path transform="translate(725,288)" d="m0 0 16 2 22 3h35l30 3h23l1 2h-40l-1-1h-10l-17 1-36-4-16-3 4 7 14 14 9 11 12 12 9 11 17 17 6 8 7 8 2 5-6-5-7-8-12-14-7-7-8-7-13-15-15-15-3-4v-2h-2l-5-5-9-10-1-2z" fill="#C1A566"/>
<path transform="translate(1131,196)" d="m0 0 2 1-10 23-2 5-1 7 7-9 1 2-12 21-6 7-4 6-7 7-7-3-10-6-5-5-3-5 9 2 10 3v2l7-1 8-16 11-20 10-18z" fill="#C6AD74"/>
<path transform="translate(639,719)" d="m0 0h5l-2 6-10 5-2 5v15l1 21v25l-2 2v-11l-2-12-4-16-2-15 1-2h-2l-5-13-1-4h-15l-14 2h-7v-1l19-3z" fill="#BDA05E"/>
<path transform="translate(735,1126)" d="m0 0h11v1l-36 5-40 9-17 6-16 8-29 15-14 6-10 5-7 1 4-8 16-16 2 1-5 5 3 1 11-4 10-1 29-14 11-5 22-6 17-4 22-3z" fill="#BDA05F"/>
<path transform="translate(1710,484)" d="m0 0 9 1 28 6 26 8 25 11 20 9 17 9 17 12 15 11 9 7v2h-2l-1 2-17-12-18-13-24-14-16-9-21-10-16-6-29-7-26-4v-2z" fill="#C0A568"/>
<path transform="translate(1102,298)" d="m0 0h9l1 1h52l46 2 2 2-13 2-2 3-37-1-2-1-4 1-3-1-14 1-7-1-2-1-4 1-15-1h-7l-2-1z" fill="#3E2B13"/>
<path transform="translate(1149,471)" d="m0 0h2v3l-8 7-2 3-3 9-7 8-16 15-10 11-7 9-3 7-9 11-10 11-4 4-2-1 6-9 9-12 12-17 8-10 3-5 14-18 2-3h2l2-4 10-10z" fill="#48351D"/>
<path transform="translate(1353,1102)" d="m0 0 3 1v2l-11 3h-4l-1 4h10v1l-29 4-31 4-28 4-1-2 6-7 2 1-4 4h5l10-5 13-1 1-2 16-4 19-4 19-2z" fill="#BD9F5C"/>
<path transform="translate(473,689)" d="m0 0 3 1 1 19v32l-1 14-1 35-2 5-2 1-18 1-2 2 6 5-2 1-24-8-7-4 3-2h18l12 2h9l3-6 2-12 2-27v-48l1-8-6 5-2-1z" fill="#BFA262"/>
<path transform="translate(1380,1099)" d="m0 0h17l13 2 4-1h16l-1 2-6 3-1 2 9 3 4 1 17 3-3-4-3-1v-2l-6-1-5-3 3-1 6-1 12 5 5 8v1h-16l-25-1-8-1v-1l12-1-5-2-33-3h-20l-7-2 4-2z" fill="#BB9D5B"/>
<path transform="translate(1181,636)" d="m0 0 2 1v28l2 19 2 54v11l2 13 2 53 1 16 1 6 2 27v20h-1l-3-36-3-37-5-75-1-48-2-16-1-19z" fill="#BFA161"/>
<path transform="translate(1554,887)" d="m0 0h1l1 5 1 28 5 32 4 13 4 8 8 11 8 10 6 4-2 1-11-8-8-8-7-11-8-18-4-19-2-15v-23l2-8z" fill="#432F16"/>
<path transform="translate(1907,639)" d="m0 0 6 3 8 10 10 19 4 12 3 13 2 19v24l-2 14-2 9-2 8h-1l1-10 2-12 1-20-3-20-4-17-9-25-14-25z" fill="#BEA160"/>
<path transform="translate(113,691)" d="m0 0 4 2 12 14 8 10 4 2v16l-7-2-7-6-7-8-6-6v-2h-2l-2-4 1-3h3l-2-12z" fill="#080302"/>
<path transform="translate(1628,837)" d="m0 0 5 1 2 3 1 13v18l1 42 2 25 1 12-2-1-3-13-1-10-1-2-1-9-1-4 1-25-3-12-1-9-1-3 5-12 1-9-7 2-6 5-6 3 1-7 5-3h2l4-4z" fill="#BFA363"/>
<path transform="translate(968,857)" d="m0 0 3 1-17 7-6 7-10 21-4 11-2 10v7l-1 6 2 6 2 17-2-2-4-13-1-6v-23l3-17 6-18 4-7 5-3 9 1z" fill="#BC9E5B"/>
<path transform="translate(1825,985)" d="m0 0h2l3 13 5 18 2 14 4 27 1 22 1 9v11l-2 20-2 10-4 16-4 10-1-3 7-26 2-17v-17l-1-31-4-22-7-33-1-5v-12l-6 5-2-1z" fill="#C0A465"/>
<path transform="translate(344,460)" d="m0 0 9 1 27 7 13 5 19 9 18 10 13 7 10 7 7 6 2 4-1 1-9-1-16-6-17-8-5-2 3-1 14 5h5l-3-5-11-7-4-4-22-11-21-8-31-8z" fill="#C0A465"/>
<path transform="translate(684,1202)" d="m0 0 3 1-18 10-11 8-10 9-9 11-4 5-4 8-3 9h-2l-2-12 5-15 3-5 2 1 7-4 6-6h2l1-3 12-8 10-4z" fill="#BEA160"/>
<path transform="translate(1187,515)" d="m0 0h8l-4 2-22 7-9 3-14 9-26 9-11 7-9 7h-3l1-3 11-9 12-9 11-6 19-7 26-8z" fill="#433018"/>
<path transform="translate(99,1182)" d="m0 0 5 5h1l1-2 2 4h2v2l4 2 11 11 7 8 10 9 8 7 11 8 13 8 17 9 18 9-2 3-16-8-17-9-20-13-13-9-11-10-8-7-10-9-7-8-6-8z" fill="#BDA36A"/>
<path transform="translate(946,715)" d="m0 0h12l12 5 5 5 4 5 3 7 2 21 1 17v22l-2 3-1-2-2-27-4-28-5-12-6-7-10-5-3-1-11-1v-1z" fill="#080302"/>
<path transform="translate(69,637)" d="m0 0 2 1 2 10 4 14 9 21 8 15 7 11 7 7 8 7 13 11 12 10 13 8 6 3-1 2-6-2-14-8-18-13-12-11-12-15-9-13-9-19-7-20-3-12z" fill="#B89C5E"/>
<path transform="translate(1458,403)" d="m0 0 4 1-3 1-3 3-10-1-3 1-1 2-4-1v-2l-3 1v3l5 1 3 1v2l3 1h-13l-11 2-7 1-13 3-7-1-4-4v-4l2-1 2-4 4 1-2 1-1 6 1 1h8l7-3 3-2h4v-2l4 1v-3-2l-4-2zm-27 6 1 2z" fill="#FDFDFD"/>
<path transform="translate(1656,992)" d="m0 0 15 6 14 3 15 2v1l-9 1h-25l-15-1-13 3-1 1-9 1h-15l-14-5-1-2 9 3 8 1h9l13-2 8-3 9-7h2z" fill="#BD9F5D"/>
<path transform="translate(1619,726)" d="m0 0 3 3 2 5v-7l3 4 3 16 2 33 1 3v11l-5 16-3 3 3-10v-11l-3-19-1-21-3-18-2-5zm6 11 1 3z" fill="#BFA262"/>
<path transform="translate(1084,476)" d="m0 0m-1 1m-1 1m-1 1m-1 1m-1 1m-1 1 1 2-9 11-32 32-8 7-7 6-3 4h-2v2h-2l-2 4-11 13-11 12-10 10-4 5-2-1 9-11 15-15 6-8 7-8 11-13 11-10 22-22 8-7z" fill="#BEA05E"/>
<path transform="translate(979,1176)" d="m0 0h32v1l-32 2-13 1-17 3-19 2-28 6-27 9-29 13-6 3-2-1 17-9 12-5h2v-2l10-4 8-4 20-5 8-1 17-3 7-2 19-3z" fill="#C0A364"/>
<path transform="translate(204,465)" d="m0 0h6l4 4-1 2-28 9-19 10-3 1-2-4 7-6 15-9 13-5z" fill="#080302"/>
<path transform="translate(1222,576)" d="m0 0 2 1-7 10-1 6v16l7 23 5 25 3 22 4 26v8l1 14 2 16v11l-2-2-3-23-1-20-4-32-1-3-3-24-6-26-4-14-1-6v-19l7-8z" fill="#FDFDFD"/>
<path transform="translate(961,724)" d="m0 0 4 2 5 5 5 11 2 13 1 21 1 5v39l-3 18-1 2-4-1 1-4-2-1 3-3h2l2-13v-11l-4-13-1-6v-16l1-12v-15l-7-14zm13 111v3z" fill="#BDA05E"/>
<path transform="translate(1565,487)" d="m0 0h5l-1 2-6 3-8 1h-2l-12 5-12 1-15 2-8 3h-2v2l-7 4h-2v2h8v1h-13l2-5 9-7 10-4 20-5 20-3z" fill="#FDFDFD"/>
<path transform="translate(1605,709)" d="m0 0 9 1 10 5 8 7 4 10 2 13v13l-2 1-3-3-4-20-4-11-5-3-9-9-12-2v-1z" fill="#0F0905"/>
<path transform="translate(1278,782)" d="m0 0h1l1 60 2 37 3 18v6l-3-1-1-11-1-3-2 2-2-8v-17h1l1-10v-9l-1-3-2 2-2-7 2-13 1-13v-18zm0 97 1 3z" fill="#C1A668"/>
<path transform="translate(472,1059)" d="m0 0 4 2 1 8-2 15-3 12-2 11-1 15-3 16-7 20-10 19-2 1 2-6 8-16 2-9 4-17 4-20z" fill="#BEA160"/>
<path transform="translate(1447,1161)" d="m0 0 15 5 16 10 11 11-10-3-17-6v-2l-10-2-9-3-1-2 6 1 3 1v-2l-8-2-2-5z" fill="#412E17"/>
<path transform="translate(981,194)" d="m0 0 5 1 12 9 10 9 24 22 3 2v2l4 2 11 10 10 8 10 10 5 3 2 2v3h-8l-2-5-4-2-3-3 4 1 6 5-6-7-11-9-13-11-11-9-19-19-11-9-9-8-6-3-2 1 8 7 4 4-1 2-10-10-3-2z" fill="#2B1908"/>
<path transform="translate(62,1104)" d="m0 0 2 2v3h2l7 19 8 18 9 14 12 20 3 4 1 5-10-10-10-14-17-33-4-10-2-12z" fill="#A38952"/>
<path transform="translate(1285,756)" d="m0 0h1v9l-3 16-1 11v23l2 63 2 14v6l-2-1-3-18-2-37v-65z" fill="#271606"/>
<path transform="translate(832,194)" d="m0 0 6 5 7 10 6 12 10 21 5 6 4 1 5-2-7 7-5-1-7-8-5-12-6-10-9-16-3-6z" fill="#BDA05E"/>
<path transform="translate(1226,301)" d="m0 0h1v10l1 1 16 1-4 4-9 5-8 5-8 1-3-5 5-13z" fill="#FDFDFD"/>
<path transform="translate(1748,748)" d="m0 0 2 3 9 21 6 11 9 14 9 12 10 16 7 10 21 28v2h-2l-1 2-14-21-12-16-11-17-17-26-8-14-8-19z" fill="#B79A5A"/>
<path transform="translate(781,198)" d="m0 0m-1 1m-1 1m-1 1m-1 1m-1 1m-1 1m-1 1m-1 1m-1 1m-1 1m-1 1v3l-10 11-7 8-12 11-8 7-7 6-4 3-1 3 14-2 2 1 40 1 15 2v1h-13l-11-1-51-1 1-5 11-12 8-6 3-1v-2l12-9z" fill="#C2A669"/>
<path transform="translate(719,1110)" d="m0 0h12l3 1 4-1 3 3-5 2-15 3-12 1-12 3-8 1-1 1h-5l1-4 3-2h3v-2l18-4z" fill="#241B10"/>
<path transform="translate(808,537)" d="m0 0 10 3 19 10 6 4v3h-7l-18-7-10-3v-2l-10-2-4-2 7-3h6z" fill="#352310"/>
<path transform="translate(1722,905)" d="m0 0 2 2 4 17 16 43 9 17 9 8 11 4 9 2v1h-11l-9-3-8-6-6-7-8-16-9-21-6-21-3-14z" fill="#BFA363"/>
<path transform="translate(1441,399)" d="m0 0h31l14 1-2 4-13-1-4 1-2-1-7 1h-39v2l-11 1-9 1 1-3 20-4z" fill="#C0A567"/>
<path transform="translate(842,540)" d="m0 0h2l4 4 5 2 6 7-1-3 3 1 10 17v3l-5-1-12-7-15-5 4-1-1-3-8-5 2-1 13 8 6 5-7-12-6-8z" fill="#BEA161"/>
<path transform="translate(726,324)" d="m0 0 6 3 2 4 4 2 5 6 8 6v2h2l4 5v2l3 1 2 4-1 4-4-1v-2l-3-1-5-5-12-11-5-5-7-12z" fill="#0C0603"/>
<path transform="translate(1394,991)" d="m0 0h3l1 5-2 7-7 4-5 1h-20l-12-3-13-7-5-3v-2l3-1 15 8 15 5h13v-2h4v-3l6-5 1-2h3z" fill="#0D0704"/>
<path transform="translate(1598,501)" d="m0 0h39l31 1 34 4 26 4 3 2-11-1-36-5-33-2h-64l-33 4h-7v-2l25-3z" fill="#C0A363"/>
<path transform="translate(520,598)" d="m0 0v3l-7 8-15 16-12 11-37 37-2-1 20-20 2-4 11-13 9-11 9-6 7-4 12-12z" fill="#3D2A13"/>
<path transform="translate(1720,960)" d="m0 0 2 2 4 23 5 9 20 9 17 6v1h-8l-16-5-8-4-7-4-2 6-3 2-3-1 2-1 1-3-6-2-4-4h7l1-2v-11l-2-15z" fill="#BEA05F"/>
<path transform="translate(1876,559)" d="m0 0 8 6 8 7 10 9 6 7 9 11 3 3-1 3-8-6-37-37v-2z" fill="#B0955C"/>
<path transform="translate(687,973)" d="m0 0h1l1 5 3 37 4 15 5 8 1 1 2-4 8 2 9 1h20l20-2 6-3h2v2l-6 3-22 3-32 2h-6l-7-8-5-13-2-13-2-28z" fill="#BEA160"/>
<path transform="translate(876,294)" d="m0 0 5 2 6 3v1h-5l-3-2 1 10 20 50 8 18-1 3-8-16-2-5-2-4-2-2-4-10-5-12-6-15-4-11 1-9z" fill="#BEA160"/>
<path transform="translate(1160,202)" d="m0 0 7 6 8 8 8 7 6 7 8 7 12 10 17 12 13 11 9 9-3 2h-16l1-3 14 1-7-8-12-10-14-10-12-9-11-10-8-7-8-8v-2l-3-1-5-6-4-1 2 7-4-2-1 2-3-1 3-8z" fill="#C1A567"/>
<path transform="translate(880,345)" d="m0 0 4 4 9 19 4 10 3 9-1 4-5 2-8-20-3-13-3-9z" fill="#080302"/>
<path transform="translate(744,291)" d="m0 0 22 2h32l30 3h23l1 2h-40l-1-1h-10l-17 1-36-4-4-1z" fill="#BEA160"/>
<path transform="translate(1251,1145)" d="m0 0h35l21 2 5 3-3 1-59-1-1-2z" fill="#2B1A08"/>
<path transform="translate(1321,408)" d="m0 0 11 2 7 2 8 3v-2l6 1v-2l7-3 4 1h-3v8l-1 1h-20l-1-3-10-1v-2h-7l-13 3-2-1v-4l8-2z" fill="#FDFDFD"/>
<path transform="translate(1510,514)" d="m0 0h11v3l-41 8-15 4-9 1-5 1-3-2 16-5 27-6z" fill="#47341A"/>
<path transform="translate(1878,968)" d="m0 0h2l8 26 6 26 5 38v31l-1 9h-1l-1-45-6-36-6-26-6-18z" fill="#C1A568"/>
<path transform="translate(844,1117)" d="m0 0h17l5 1v2l4-1v2l11 1 3 2-45-1-11-1-23-1 1-2h21z" fill="#A58A4F"/>
<path transform="translate(1243,591)" d="m0 0h1l3 55 4 50v15l-2-1-5-60-2-31v-25z" fill="#C0A364"/>
<path transform="translate(855,1140)" d="m0 0h28l25 3 19 5 10 5 1 2h-23l-6-1v-1l13-1-5-2-21-5-15-3-26-1z" fill="#BD9F5C"/>
<path transform="translate(1044,211)" d="m0 0 10 2 3 2v-2l7-1 16 8 6 4v1h-7l-13-4-12-2-4 1-7-5-1-3z" fill="#BFA468"/>
<path transform="translate(521,412)" d="m0 0h17l16 2 6 2 7 1 9 3 15 4v1l-9-1-18-4-35-4-42-2v-1z" fill="#BD9F5D"/>
<path transform="translate(1348,1136)" d="m0 0h21l24 9-1 2-9-2-6-3-8 1-1 2-9 1-16-4v-1l6-1 2-1v-2z" fill="#2E1C0A"/>
<path transform="translate(771,735)" d="m0 0 4 2 7 14 2 9v22l-3 3-2-3-2-25-2-9-5-12z" fill="#080302"/>
<path transform="translate(630,987)" d="m0 0 2 3 2 18 2 6 2-10h1l2 13 3 6 8 5 13 2v4h-2v-2l-10-1-18-7-4-6-1-6z" fill="#C5AA70"/>
<path transform="translate(115,684)" d="m0 0 19 19v2l4 2 7 6 19 12 23 12 21 8 10 3 1 2-8-1-25-9-14-7-21-13-11-8-10-9-8-8-7-9z" fill="#C3A76B"/>
<path transform="translate(1059,301)" d="m0 0h9l-3 2-8 2 4 2h-36l-48-1-2-2h67v-2z" fill="#3B2812"/>
<path transform="translate(1200,989)" d="m0 0h1l1 42v57l-2 15-4 16-2 2 3-22 2-13v-85z" fill="#BEA05E"/>
<path transform="translate(1123,215)" d="m0 0 1 3-3 7-1 7 7-9 1 2-12 21-6 7-4 6-7 7-4-2 5-2 6-7 6-18 9-19z" fill="#FDFDFD"/>
<path transform="translate(1430,1099)" d="m0 0h8l5 3v1h-7l10 4v2l4 1 2 4-20-2-10-5 2-4 5-2z" fill="#2C1A09"/>
<path transform="translate(537,1012)" d="m0 0h1l1 16-1 60-3 24-3 13-2 1 1-6 3-19 1-10 1-43v-35z" fill="#BD9F5C"/>
<path transform="translate(775,883)" d="m0 0h1l2 18 1 51 2 38 1 18-2-3-2-9-2-34v-54z" fill="#BEA160"/>
<path transform="translate(1769,697)" d="m0 0 8 1 14 8 9 9 8 14 9 22 4 12 4 4 2-5 1 4-1 5-4 3-1-5-6-12-8-21-8-16-7-9-10-7-4-2h-18l4-3z" fill="#C7AE76"/>
<path transform="translate(226,580)" d="m0 0v3l-4 8-2 8v14l-1 2 5 14 6 8 10 9 12 5 5 2-4 1-14-5-9-7-8-9-6-12v-11l4-20 4-8z" fill="#C2A76A"/>
<path transform="translate(610,491)" d="m0 0 12 1 22 3 24 7 17 6-4 1-31-10-7-1h-12l3 3-9-2-18-6z" fill="#BFA261"/>
<path transform="translate(1039,279)" d="m0 0 3 1-1 6-4 9-4 4-12-1-8-2 4-2h9v-2l3-3h2v-2h2l2-6z" fill="#FDFDFD"/>
<path transform="translate(1076,301)" d="m0 0 3 1v15l6-1-1 7 5-2-1 7-1 3h-6l-6-6-1-8 2-11z" fill="#FCFBFA"/>
<path transform="translate(1237,437)" d="m0 0 4 1-7 2v2l-24 10-19 9-9 6-7 4-6 1 4-4 18-10 21-11 20-8z" fill="#796442"/>
<path transform="translate(741,573)" d="m0 0 10 1 22 4 26 2 39 1 10 1v1h-56l-17-2-34-7z" fill="#BEA160"/>
<path transform="translate(1461,717)" d="m0 0h2l2 11 3 30 4 20v8l-1 5h-1l-2-16-1 7h-1l-1-13v-14l-4-31-1-6z" fill="#C7AE76"/>
<path transform="translate(783,1166)" d="m0 0h6l4 1h6v1l-49 11-14 4-17 6-3-1 18-7 18-6 18-5 14-2 2 1v-2z" fill="#BCA060"/>
<path transform="translate(781,879)" d="m0 0h2l3 7 1 1 1 14v17l-1 4-3 1-1-3z" fill="#080302"/>
<path transform="translate(968,194)" d="m0 0h10l-1 4-4 2-6 2-4 5h-4l-3 3-3 5-5 3-4-1 2-3h4l2-5 7-10h2v-2z" fill="#FDFDFD"/>
<path transform="translate(1710,484)" d="m0 0 9 1 28 6 26 8 10 4v3l-9-3-13-5-29-7-26-4v-2z" fill="#C3A86D"/>
<path transform="translate(979,1176)" d="m0 0h32v1l-32 2-13 1-17 3-19 1 3-3 25-4z" fill="#BEA05E"/>
<path transform="translate(1763,704)" d="m0 0 9 1 12 7 6 5 7 10 6 12 9 23 4 12 4 3h-5l-8-21-9-21-6-11-8-9-13-8h-12l-5 3-2-1 3-3z" fill="#C1A566"/>
<path transform="translate(1379,531)" d="m0 0 2 1-22 12-15 8-12 7-6 3-2-1 4-4 18-11 16-8 11-5z" fill="#665233"/>
<path transform="translate(468,1110)" d="m0 0h1v12l-3 16-7 20-10 19-2 1 2-6 8-16 2-9 4-17 4-19z" fill="#C1A567"/>
<path transform="translate(1448,576)" d="m0 0 1 3-3 11v14l4 12 1 5-3-1-5-8-2-7v-15l2-10z" fill="#080302"/>
<path transform="translate(734,1267)" d="m0 0 2 1-11 8-8 4-10 4-15 4-22 3h-25l1-2 31-1 17-3 20-7 19-10z" fill="#BEA15F"/>
<path transform="translate(90,1017)" d="m0 0h1v22l-1 11 2 25 4 20 5 17-1 3-5-15-5-22-2-21v-31z" fill="#BFA363"/>
<path transform="translate(855,203)" d="m0 0 28 4 13 4v3h-9l-17-3-12-5z" fill="#BDA05F"/>
<path transform="translate(1215,570)" d="m0 0h10v2l-19 5-12 2-1-1-11 1-4 1-19 3h-7v-1l44-8 17-3z" fill="#46331A"/>
<path transform="translate(1667,479)" d="m0 0h15l17 2 11 2v2h-4l-1 2-34-4-8-2z" fill="#A98D53"/>
<path transform="translate(163,753)" d="m0 0 9 3 19 8 26 8 29 6 2 2h-7l-30-7-22-6-20-9-6-4z" fill="#BD9F5C"/>
<path transform="translate(963,301)" d="m0 0h32l47 2v1l-71 1-7-1z" fill="#0A0503"/>
<path transform="translate(1321,704)" d="m0 0 1 2h-2v2l-6 5-11 15-6 10-5 2 2-6 6-10 8-11 9-8z" fill="#3D342A"/>
<path transform="translate(683,1186)" d="m0 0h4v2h2v2l-13 8-11 5-9 5-2-2 18-13z" fill="#2B2114"/>
<path transform="translate(1097,534)" d="m0 0 1 2-3 7-9 11-10 11-4 4-2-1 6-9 9-12 6-9 4-2z" fill="#49351A"/>
<path transform="translate(1105,271)" d="m0 0 16 1 6 1 47 1v2l-5 1h-19l-29-1-15-2z" fill="#BFA363"/>
<path transform="translate(1224,265)" d="m0 0 7 2 8 5 5 5v2h-12l-4-5-6-4v-2l-4-2z" fill="#100904"/>
<path transform="translate(827,1221)" d="m0 0 2 1-28 17-14 11-12 9-13 11-11 9v-3l8-7 22-18 13-10 15-10 11-6z" fill="#C0A465"/>
<path transform="translate(108,912)" d="m0 0h3l-1 5-7 10-1 3-2 1-1 3-6 6-4 1 1-5 6-9 7-9z" fill="#080302"/>
<path transform="translate(1484,564)" d="m0 0 7 1 9 6 9 11 5 10 2 8v20h-2l-1-22-5-12-8-10-9-7-7-3z" fill="#B69C66"/>
<path transform="translate(881,376)" d="m0 0 3 4 4 7 9 20 9 21 11 25 3 7-1 3-8-17-7-16-8-18-7-16-7-15z" fill="#C2A669"/>
<path transform="translate(1442,1101)" d="m0 0 10 3 6 4 3 7h-16l-4-2h8l3 1-3-4-3-1v-2l-6-1-5-3 3-1z" fill="#BEA05F"/>
<path transform="translate(1343,693)" d="m0 0h21l16 4 12 5 8 5-2 1-15-7-18-4h-9l-8 1v-2l-8-1z" fill="#AE945C"/>
<path transform="translate(1488,400)" d="m0 0 12 1 12 2 12 3 24 8-3 1-22-6-30-5-5-2z" fill="#C5AD78"/>
<path transform="translate(1577,700)" d="m0 0 2 1-9 10-7 6-9 13-4 4-1 3h-2l3-9 8-11 8-9 7-6z" fill="#3E3120"/>
<path transform="translate(885,469)" d="m0 0 7 6 15 15 7 8 33 33-4-2-8-7-47-47-3-4z" fill="#C0A363"/>
<path transform="translate(1858,926)" d="m0 0 5 3 15 33 1 6-2 2-9-21-10-20z" fill="#B4995D"/>
<path transform="translate(1400,708)" d="m0 0 6 2 8 6 9 10 11 15 7 14-1 3-12-20-12-16-10-9-6-4z" fill="#988052"/>
<path transform="translate(1328,1136)" d="m0 0h20l3 1-1 4-6 1-3 1-9-2-13-1v-2z" fill="#AD9053"/>
<path transform="translate(1190,207)" d="m0 0 4 2 11 10 14 11 14 12 6 5-1 2-17-13-16-13-15-15z" fill="#BA9D5E"/>
<path transform="translate(69,637)" d="m0 0 2 1 2 10 4 14 9 21 4 8-1 3-3-3-8-18-6-17-3-12z" fill="#B4985C"/>
<path transform="translate(1612,692)" d="m0 0 16 4v1h-7l-10-2-19 4-11 6-2-1 3-4-2-1 11-4 8-2z" fill="#493720"/>
<path transform="translate(951,518)" d="m0 0 5 1 8 16 1 5-4-2-6-7-3-5-3-4v-3z" fill="#080302"/>
<path transform="translate(1554,887)" d="m0 0h1l-1 14-1 6 1 22 1 10-2 1-3-20v-23l2-8z" fill="#C0A465"/>
<path transform="translate(771,779)" d="m0 0 2 2 1 18 1 28 1 16-3-2 1-4h-2l-1-11 1-15z" fill="#C2A76A"/>
<path transform="translate(1651,502)" d="m0 0h17l34 4 26 4 3 2-11-1-36-5-33-2z" fill="#C2A668"/>
<path transform="translate(1006,138)" d="m0 0 12 1 27 3 9 2 3 1v2h-6l-7-2-10-1h-10l-1-1-3 1v-2l-14-2z" fill="#CEB887"/>
<path transform="translate(1476,420)" d="m0 0h13l12 2 1 3h-30l1-4z" fill="#251405"/>
<path transform="translate(816,1033)" d="m0 0 15 1-4 2h-24l-17 2h-13l-3-2 9-1 1-1z" fill="#BD9F5D"/>
<path transform="translate(1896,1100)" d="m0 0h1l-1 15-4 19-8 24-4 8-2-1 8-21 6-23z" fill="#D0BA8B"/>
<path transform="translate(1497 1e3)" d="m0 0h46v1l-21 2h-5l-2 1-8-1-2-1-1 2-1-1h-8l-12 1 1-2z" fill="#BFA262"/>
<path transform="translate(1552,730)" d="m0 0 1 3-1 8 5 14v2l-5-1-4-8-1-1v-10h2l1-5z" fill="#080302"/>
<path transform="translate(1878,968)" d="m0 0h2l8 26 5 22-1 5-2-4-6-26-6-18z" fill="#AB9360"/>
<path transform="translate(1748,748)" d="m0 0 2 3 9 21 6 11 9 14 1 2-4-1-12-19-7-15-4-10z" fill="#BB9F63"/>
<path transform="translate(1845,901)" d="m0 0 4 2 7 11 6 12-1 3-5-5-5-8-7-12z" fill="#715930"/>
<path transform="translate(115,684)" d="m0 0 19 19v2l4 2 7 6 19 12 2 1v2l-5-2-16-10-11-9-12-12-7-9z" fill="#CCB582"/>
<path transform="translate(688,410)" d="m0 0 8 1 19 7 18 8 18 11v2l-5-2-10-6-16-8-11-5-21-7z" fill="#C5AC72"/>
<path transform="translate(1709,741)" d="m0 0h1l1 19 3 14 2 7v5h-2l-4-11-2-10v-20z" fill="#080302"/>
<path transform="translate(722,1032)" d="m0 0h17l3 2v2l-7 1h-13l-7-2-1-2z" fill="#080302"/>
<path transform="translate(70,981)" d="m0 0h1l-1 9-4 17-3 22-2 2v-11l2-15 4-16z" fill="#080302"/>
<path transform="translate(1271,987)" d="m0 0h1l2 16v48h-1l-1-29-2-23v-11z" fill="#B5995A"/>
<path transform="translate(332,902)" d="m0 0 4 2 5 4 7 10 7 14 3 11v12h-1l-4-20-5-12-10-14z" fill="#A48A53"/>
<path transform="translate(1088,169)" d="m0 0 11 1 20 5 13 5 2 3-4 1-20-4-1-2 11 2h6l-23-7-15-3z" fill="#BEA05F"/>
<path transform="translate(358,947)" d="m0 0h1l2 15v11l-3 22-2 2-1-3 3-17v-9l-1-13z" fill="#C2A76A"/>
<path transform="translate(904,733)" d="m0 0 1 3-2 4-3 10-2 13 1 11 3 1v2l-4-2-2-3v-18l2-10 5-10z" fill="#BD9F5C"/>
<path transform="translate(920,463)" d="m0 0 2 3 9 32 4 8-1 2-8-8-2-7 2-1-2-11-4-13z" fill="#C2A76A"/>
<path transform="translate(676,733)" d="m0 0h5l6 8v11l-12-16z" fill="#080302"/>
<path transform="translate(575,728)" d="m0 0 2 1 5 11 3 16v13h-1l-2-16-7-18-1-5z" fill="#C0A364"/>
<path transform="translate(62,1104)" d="m0 0 2 2v3h2l7 19 5 12-1 3-3-4-8-19-4-13z" fill="#755E37"/>
<path transform="translate(640,1031)" d="m0 0 13 1 2 1v2l-5 2-13 1-2-1 1-4z" fill="#080302"/>
<path transform="translate(1821,692)" d="m0 0h2l2 5 2 27 1 16h-1l-6-39z" fill="#C4A96E"/>
<path transform="translate(484,680)" d="m0 0 1 2-1 3-1 14-2 5-2-3-2-12v-3z" fill="#090302"/>
<path transform="translate(855,314)" d="m0 0h1l4 13 16 35 4 8-1 4-13-28-8-17-3-8z" fill="#C2A668"/>
<path transform="translate(774,1026)" d="m0 0 8 1 1 2 10 1 1 2-13 1h-12l2-4z" fill="#080302"/>
<path transform="translate(822,145)" d="m0 0 3 1h-2l2 10 5 6 4 2h14l-2 2h-17l-5-5-4-7-1-6z" fill="#BEA15F"/>
<path transform="translate(1208,449)" d="m0 0 1 2-14 7-1 2-9 5-10 6-6 1 4-4 18-10z" fill="#4D3A1E"/>
<path transform="translate(919,404)" d="m0 0 3 4 11 25 8 19-1 3-5-11-9-19-7-17z" fill="#C0A464"/>
<path transform="translate(1503,1098)" d="m0 0 5 1v3l-6 2-2 5-3 4h-2l-1 3 1-10 2-4z" fill="#F7F4EE"/>
<path transform="translate(59,1086)" d="m0 0 2 2 4 17-1 4 1 4-1 4-4-11-3-13 1-5z" fill="#9C8350"/>
<path transform="translate(1240,250)" d="m0 0 5 2 18 13 6 7v2l-4-2-10-9-9-7-6-5z" fill="#B09457"/>
<path transform="translate(1461,717)" d="m0 0h2l2 11 2 19v11l-2-3-4-31-1-6z" fill="#BEA15F"/>
<path transform="translate(883,870)" d="m0 0 3 3v7l-2 10-5-1 1-10 2-3z" fill="#CDB786"/>
<path transform="translate(906,739)" d="m0 0h2v8l1 10-4 2-2-1v-11z" fill="#080302"/>
<path transform="translate(734,1267)" d="m0 0 2 1-11 8-8 4-10 4-7 1 2-3 12-4 19-10z" fill="#C4A96D"/>
<path transform="translate(844,1117)" d="m0 0h5l-4 2-7 2v1l-33-1 1-2h21z" fill="#BB9D5A"/>
<path transform="translate(910,988)" d="m0 0 5 2 5 10v5h-3l-5-7-2-7z" fill="#080302"/>
<path transform="translate(1814,902)" d="m0 0 5 5 6 7 10 14 5 13-1 2-8-16-9-13-8-10z" fill="#FDFDFD"/>
<path transform="translate(1468,645)" d="m0 0 13 1 6 2-3 2-5 2-6-1-4-2z" fill="#3E2B15"/>
<path transform="translate(737,1272)" d="m0 0h2l-2 4-8 6-9 3-4-1 18-11z" fill="#080302"/>
<path transform="translate(990,153)" d="m0 0 38 3 8 1v1h-12l-13-1h-16l3 3-4-1-5-5z" fill="#BEA160"/>
<path transform="translate(1750,812)" d="m0 0 3 2v2h2l7 9 4 4 8 16 1 4-3-3-6-12-5-6-4-4-7-10z" fill="#FDFDFD"/>
<path transform="translate(787,1246)" d="m0 0m-1 1m-1 1m-1 1m-1 1v3l-9 7-11 9-12 10v-3l8-7 22-18z" fill="#C1A668"/>
<path transform="translate(83,570)" d="m0 0h1v9l-3 8-4 4-1-4 5-15z" fill="#080302"/>
<path transform="translate(1350,545)" d="m0 0m-1 1m-2 1h2l-1 3-16 9-6 3-2-1 4-4 11-7z" fill="#3D2C19"/>
<path transform="translate(1803 1e3)" d="m0 0 3 1-12 5-5 2-20 1 2-2 22-4z" fill="#BD9F5C"/>
<path transform="translate(834,548)" d="m0 0 5 2 10 6 7 5v3l-17-6 4-1-1-3-8-5z" fill="#C0A364"/>
<path transform="translate(811,295)" d="m0 0 21 1h19l1 2h-40z" fill="#BD9F5C"/>
<path transform="translate(1e3 560)" d="m0 0v3l-11 12-10 10-4 5-2-1 9-11z" fill="#BD9F5C"/>
<path transform="translate(584,555)" d="m0 0 3 1-21 11-4 2 4-5 4-1v-2l3-1-1-2z" fill="#BD9F5C"/>
<path transform="translate(710,307)" d="m0 0 1 2 7 2 4 5v6l-5-2-7-9z" fill="#2D2214"/>
<path transform="translate(982,162)" d="m0 0 4 1v6l-3 8 3 7 2 9-4-5-3-6v-11l2-7z" fill="#FDFDFD"/>
<path transform="translate(777,974)" d="m0 0 3 1 2 27v6l-2-3-2-9z" fill="#C3A96D"/>
<path transform="translate(1649,940)" d="m0 0 1 3h2l2 9v8l-1 2-3-1-2-18z" fill="#080302"/>
<path transform="translate(891,988)" d="m0 0 3 3 2 5 2 1v4l-8-1-1-1v-9z" fill="#EAE1CE"/>
<path transform="translate(1196,574)" d="m0 0h7v1l-21 4-4 1-19 3h-7v-1z" fill="#C4AA6F"/>
<path transform="translate(1105,1008)" d="m0 0 4 2 9 5 10 2h9l6-2 4-1-1 3-5 2h-19l-14-7z" fill="#BFA262"/>
<path transform="translate(1285,898)" d="m0 0h2l6 25 2 10-3-3-5-18-2-9z" fill="#251405"/>
<path transform="translate(1139,506)" d="m0 0 4 1 1 3-14 8h-2v-4z" fill="#4D3C20"/>
<path transform="translate(979,829)" d="m0 0 2 1 1 5-3 8-6 2-7 1v-2l-2-1 1-1 10-1 2-1z" fill="#080302"/>
<path transform="translate(1812,744)" d="m0 0h2l4 11 4 10 3 2 2-5 1 4-1 5-4 3-1-5-6-12-4-11z" fill="#C4AA6F"/>
<path transform="translate(1248,672)" d="m0 0h1l2 24v15l-2-1-2-24v-8z" fill="#BD9F5C"/>
<path transform="translate(1515,404)" d="m0 0 9 2 24 8-3 1-22-6-11-2z" fill="#CBB685"/>
<path transform="translate(878,1195)" d="m0 0m-1 1m-2 1h2v2l-33 15-6 2 3-3 17-8 9-4h2v-2z" fill="#BDA05E"/>
<path transform="translate(1769,697)" d="m0 0 8 1 14 8 1 2-4-1-9-5h-18l4-3z" fill="#CEB887"/>
<path transform="translate(774,844)" d="m0 0h1l1 31-1 5h-1l-1-10v-24z" fill="#BD9F5C"/>
<path transform="translate(1439,585)" d="m0 0 1 3-2 7-1 16 3 7-1 3-5-11v-10l4-13z" fill="#C2A76A"/>
<path transform="translate(509,474)" d="m0 0 6 1 6 4v2l-9 1-6-2 1-2h2l-1-3z" fill="#D2BE91"/>
<path transform="translate(684,842)" d="m0 0h1l1 7v36l-2-2v-20l-1-18z" fill="#BEA160"/>
<path transform="translate(69,637)" d="m0 0 2 1 2 10 6 21-3-1-5-15-2-9z" fill="#CBB78A"/>
<path transform="translate(1115,542)" d="m0 0 2 1-3 3 1 2-11 8-4 3h-3l1-3 11-9z" fill="#B79C60"/>
<path transform="translate(1131,196)" d="m0 0 2 1-8 18h-2l-2 5-3 1 2-5 9-17z" fill="#CAB27D"/>
<path transform="translate(1245,643)" d="m0 0 2 3 1 13v19h-1l-2-16z" fill="#856D3E"/>
<path transform="translate(188,1252)" d="m0 0 20 9 1 2-2 2-20-10z" fill="#CBB37F"/>
<path transform="translate(954,718)" d="m0 0 9 4 7 6 5 9-1 3-6-10-1-3-4-2-12-5z" fill="#402D16"/>
<path transform="translate(1400,708)" d="m0 0 6 2 8 6 9 10 2 4h-3l-7-9-9-8-6-4z" fill="#C7B07D"/>
<path transform="translate(1160,202)" d="m0 0 7 6 1 2-4-2-4-1 2 7-4-2-1 2-3-1 3-8z" fill="#C4A96D"/>
<path transform="translate(231,639)" d="m0 0 8 6 7 4 11 4-4 1-14-5-9-7z" fill="#C7B07C"/>
<path transform="translate(1468,599)" d="m0 0 7 6 10 14 6 8v3l-8-9-8-12-7-8z" fill="#FDFDFD"/>
<path transform="translate(1755,494)" d="m0 0 18 5 10 4v3l-9-3-13-5-8-2z" fill="#D1C09A"/>
<path transform="translate(1172,228)" d="m0 0 7 6 11 12 7 7h-3l-10-9-7-8-5-6z" fill="#BFA261"/>
<path transform="translate(1870,949)" d="m0 0h2l4 9 3 7-1 5-2-2-7-18z" fill="#A0864F"/>
<path transform="translate(65,1117)" d="m0 0 2 3 9 21 3 1 1 4-2 3-9-17-4-10z" fill="#BCA063"/>
<path transform="translate(1788,532)" d="m0 0 5 1 25 13 1 2-6-2-25-12z" fill="#DACAA5"/>
<path transform="translate(794,1029)" d="m0 0h22l4 2v1h-22z" fill="#080302"/>
<path transform="translate(502,616)" d="m0 0 2 1-3 3-7 3-9 9-6 7v-3l10-12 9-6z" fill="#C0A364"/>
<path transform="translate(1264,560)" d="m0 0 4 1v4l-10 6-10 10v-3l11-11 4-3z" fill="#BB9E5D"/>
<path transform="translate(837,255)" d="m0 0 7 6 4 5-2 2h-8l2-1-1-7z" fill="#BFA261"/>
<path transform="translate(1143,189)" d="m0 0 3 1-1 7-5 8-2-2 4-13z" fill="#BFA261"/>
<path transform="translate(1494,1274)" d="m0 0 5 1 6 2v2l4-1 6 2 1 5-17-7-5-3z" fill="#C3A96D"/>
<path transform="translate(1878,968)" d="m0 0h2l7 22-1 3-3-5-5-15z" fill="#BEA369"/>
<path transform="translate(1934,792)" d="m0 0 1 4-1 3v15l3 4-5-1-2-11 2-8z" fill="#FDFDFD"/>
<path transform="translate(515,689)" d="m0 0h1l3 18v22h-1l-1-16-2-11z" fill="#BD9F5C"/>
<path transform="translate(947,531)" d="m0 0 4 2 6 2 6 8v2l-4-2-10-9z" fill="#C1A567"/>
<path transform="translate(78,1145)" d="m0 0 3 3 13 22v3l-8-11-4-8-3-3z" fill="#31200E"/>
<path transform="translate(961,724)" d="m0 0 4 2 5 5 5 11-1 4-8-15z" fill="#BD9F5C"/>
<path transform="translate(226,580)" d="m0 0v3l-4 8-2 8v14l-1-3h-2v-7l4-16z" fill="#C9B07A"/>
<path transform="translate(1234,267)" d="m0 0 4 2 10 10-3 2h-16l1-3 14 1-7-8z" fill="#BEA05F"/>
<path transform="translate(1207,247)" d="m0 0 5 2 18 13 5 5-4-1-13-10-11-8z" fill="#CAB27D"/>
<path transform="translate(739 1e3)" d="m0 0 2 1 2 9 4 7 9 6-3 1-6-4-6-8-3-6z" fill="#C5AB71"/>
<path transform="translate(1924,832)" d="m0 0 2 1-6 7-8 4h-2l2-4z" fill="#4D391C"/>
<path transform="translate(1879,603)" d="m0 0 7 6 7 9 8 9-1 2-13-14-8-10z" fill="#BFA262"/>
<path transform="translate(1469,561)" d="m0 0h11l7 2-3 1v2h-6l2-1v-2l-19 1 3-2z" fill="#C0A465"/>
<path transform="translate(1263,459)" d="m0 0 3 2-19 8-3-1 4-1v-2z" fill="#685537"/>
<path transform="translate(1787,866)" d="m0 0 4 2 6 5 7 11 1 5-4-5-8-11z" fill="#FDFDFD"/>
<path transform="translate(1109,178)" d="m0 0 11 2 8 1v-2l5 2v3l-15-2-9-3z" fill="#BD9F5C"/>
<path transform="translate(1375,696)" d="m0 0 10 3 14 7 1 2-6-2-11-5-11-3z" fill="#DED0B1"/>
<path transform="translate(1199,1096)" d="m0 0h1v7l-4 16-2 2 3-22z" fill="#BFA262"/>
<path transform="translate(1266,911)" d="m0 0h2v26l-2-4z" fill="#BEA05F"/>
<path transform="translate(68,972)" d="m0 0 1 3-6 20-3 1 3-12z" fill="#BFA362"/>
<path transform="translate(166,727)" d="m0 0 19 9v2l-5-1-11-6-3-2z" fill="#C3A96D"/>
<path transform="translate(89,693)" d="m0 0h2l8 13 1 4-5-5-7-10z" fill="#C2A86F"/>
<path transform="translate(827,401)" d="m0 0 7 6 10 10 4 5-1 2-5-5v-2l-3-1-7-8-5-5z" fill="#BFA363"/>
<path transform="translate(896,354)" d="m0 0h2l8 17 2 5-1 3-8-16-2-5z" fill="#BD9F5C"/>
<path transform="translate(1203,303)" d="m0 0h10l2 1-1 3-17-1 2-2z" fill="#080302"/>
<path transform="translate(1268,946)" d="m0 0h2v28h-1l-1-13z" fill="#C6AD75"/>
<path transform="translate(1285,756)" d="m0 0h1v9l-2 8-2 1-2 3 1-8z" fill="#796648"/>
<path transform="translate(1059,212)" d="m0 0 8 1 5 4h-7l-9-1 1-3z" fill="#FDFDFD"/>
<path transform="translate(1851,915)" d="m0 0 3 1 2 3 1-2 5 9-1 3-5-5-5-8z" fill="#937944"/>
<path transform="translate(1796,729)" d="m0 0h2l5 10 4 10v2h-2l-8-18z" fill="#CBB480"/>
<path transform="translate(855,314)" d="m0 0h1l4 13 5 11v2h-2l-6-14-2-5z" fill="#BFA363"/>
<path transform="translate(750,1276)" d="m0 0m-1 1v3l-11 8-10 6 1-3 15-10z" fill="#BEA15F"/>
<path transform="translate(1509,823)" d="m0 0 4 5 4 12v7l-2-3-6-18z" fill="#FDFDFD"/>
<path transform="translate(1425,779)" d="m0 0 2 3 4 8 4 11-1 4-9-22z" fill="#FDFDFD"/>
<path transform="translate(1762,782)" d="m0 0 4 2 8 13 1 2-4-1-9-14z" fill="#C7AE76"/>
<path transform="translate(1410,754)" d="m0 0 8 6 3 5 2 9-2-1-3-8-8-9z" fill="#FDFDFD"/>
<path transform="translate(1944,746)" d="m0 0h1l-1 14-2 9-2-1 1-8 2-13z" fill="#BFA363"/>
<path transform="translate(1619,726)" d="m0 0 3 3 4 11v4h-3l-3-12z" fill="#D4C197"/>
<path transform="translate(1222,234)" d="m0 0 4 2 10 9 3 2-1 2-17-13z" fill="#CAB27D"/>
<path transform="translate(81,1153)" d="m0 0 3 3 7 12 4 5-1 3-8-11-5-10z" fill="#CEB887"/>
<path transform="translate(1328,1136)" d="m0 0h10v1l-7 2-1 1h-11v-2z" fill="#BEA15F"/>
<path transform="translate(763,735)" d="m0 0 4 1 2 11v11h-1l-3-17z" fill="#C3A86C"/>
<path transform="translate(868,581)" d="m0 0 7 1-1 3-16-1v-2z" fill="#BD9F5C"/>
<path transform="translate(1065,302)" d="m0 0h3l-1 4-3 2-9-2 2-2z" fill="#080302"/>
<path transform="translate(332,902)" d="m0 0 4 2 5 4 6 8v2l-4-2-7-9z" fill="#DACAA6"/>
<path transform="translate(1031,842)" d="m0 0h1v39h-1z" fill="#C3A86C"/>
<path transform="translate(976,828)" d="m0 0 1 3-2 9-4-1 1-4-2-1 3-3h2zm-2 7v3z" fill="#BEA160"/>
<path transform="translate(1558,721)" d="m0 0v3l-4 6-4 4-1 3h-2l3-9 1-2 5-3z" fill="#372C1D"/>
<path transform="translate(993,709)" d="m0 0 6 2 11 8h-3l-16-8z" fill="#E4D8BF"/>
<path transform="translate(1206,276)" d="m0 0h11l11 1-2 2-21-1z" fill="#917642"/>
<path transform="translate(1041,142)" d="m0 0 11 1 5 2v2h-6l-10-3z" fill="#C7AD75"/>
<path transform="translate(1359,702)" d="m0 0h5l2 3-10 2-5 4-2-1 7-6z" fill="#C5AB71"/>
<path transform="translate(1721,887)" d="m0 0h1v18h-1l-2-12v-4z" fill="#B49757"/>
<path transform="translate(1193,576)" d="m0 0m-5 1h5v2l-4 2-11 1 1-3z" fill="#291707"/>
<path transform="translate(1234,469)" d="m0 0h7v2l-10 3h-5l5-4z" fill="#48351C"/>
<path transform="translate(1377,458)" d="m0 0 2 2-10 6-4 3h-2l2-4z" fill="#D5C39A"/>
<path transform="translate(667,1198)" d="m0 0m-1 1m-4 1h4l-1 3-9 5-2-2z" fill="#473B2A"/>
<path transform="translate(1722,905)" d="m0 0 2 2 3 14-1 3-2-2-2-11z" fill="#C0A465"/>
<path transform="translate(1190,831)" d="m0 0h2l1 6v11h-2z" fill="#BEA160"/>
<path transform="translate(904,733)" d="m0 0 1 3-2 4-3 8-3 1 3-10z" fill="#C2A769"/>
<path transform="translate(584,555)" d="m0 0 3 1-12 6-2-1-1-3z" fill="#BFA772"/>
<path transform="translate(1334,553)" d="m0 0 3 1-5 5-6 3-2-1 4-4z" fill="#695433"/>
<path transform="translate(1015,546)" d="m0 0v3l-10 12-2-2 11-12z" fill="#C6AC73"/>
<path transform="translate(812,384)" d="m0 0 7 6 8 9-1 2-8-8-6-7z" fill="#BEA160"/>
<path transform="translate(70,1129)" d="m0 0 4 1 4 10-1 3-3-4z" fill="#513C1E"/>
<path transform="translate(177,1247)" d="m0 0 5 1 6 4-1 2-6-2-4-3z" fill="#C0A66C"/>
<path transform="translate(1892,1020)" d="m0 0h2l2 16h-2l-3-15z" fill="#C1B08C"/>
<path transform="translate(1014,724)" d="m0 0 5 5 7 14-1 2-9-17z" fill="#E1D5B8"/>
<path transform="translate(1504,402)" d="m0 0 8 1 3 2-2 1h-7l-3-1z" fill="#AE935B"/>
<path transform="translate(940,142)" d="m0 0 3 1-3 2-7 1 1 3-3-1v-5z" fill="#FDFDFD"/>
<path transform="translate(1267,1116)" d="m0 0 2 1-4 4 5 1v2l-8 1-1-2z" fill="#AA8D51"/>
<path transform="translate(650,1028)" d="m0 0 15 2v4h-2v-2l-10-1-3-1z" fill="#BD9F5C"/>
<path transform="translate(1248,672)" d="m0 0h1l1 18-2 1-1-5v-8z" fill="#C5AA70"/>
<path transform="translate(535,584)" d="m0 0v3l-13 13-1-3 10-9z" fill="#2E1C0A"/>
<path transform="translate(1240,250)" d="m0 0 5 2 8 6 2 4-4-2-11-9z" fill="#C7AD75"/>
<path transform="translate(62,1104)" d="m0 0 2 2v3h2l2 9-1 3-3-8z" fill="#49361D"/>
<path transform="translate(1957,791)" d="m0 0h2l-2 6-5 8h-2l2-4z" fill="#C9B17B"/>
<path transform="translate(1484,564)" d="m0 0 7 1 4 4-1 2-10-5z" fill="#69522C"/>
<path transform="translate(1338,488)" d="m0 0 2 1-4 4h-2v2h10v1h-13l2-4z" fill="#FDFDFD"/>
<path transform="translate(1097,425)" d="m0 0 2 1-13 13v-3l8-9z" fill="#796441"/>
<path transform="translate(1827,762)" d="m0 0 1 4-1 5-4 3-1-5-1-2h4z" fill="#BFA261"/>
<path transform="translate(1432,744)" d="m0 0 4 1 5 10-1 3z" fill="#BEA369"/>
<path transform="translate(898,748)" d="m0 0 2 2-2 11h-2v-7z" fill="#BFA261"/>
<path transform="translate(1251,725)" d="m0 0 2 1v15l-2-1z" fill="#BD9F5C"/>
<path transform="translate(1369,715)" d="m0 0 4 2 7 9-1 3-7-9z" fill="#C3A86C"/>
<path transform="translate(993,516)" d="m0 0v3l-5 4-5-1 1-2 4-2z" fill="#BFA261"/>
<path transform="translate(1180,464)" d="m0 0 1 2-4 4-8 2 4-4z" fill="#523D1F"/>
<path transform="translate(1228,273)" d="m0 0 5 1 3 3 4 2h-8l-4-5z" fill="#3E2B13"/>
<path transform="translate(58,1076)" d="m0 0 2 4v6l-2 4h-2v-5l1-1z" fill="#C1A567"/>
<path transform="translate(1348,711)" d="m0 0 2 3-6 7-3 4 1-5 5-8z" fill="#C1A567"/>
<path transform="translate(1132,511)" d="m0 0h2v2l3 1-7 4h-2v-4z" fill="#65502E"/>
<path transform="translate(1190,207)" d="m0 0 4 2 10 9v2l-4-2-10-10z" fill="#D0BC8D"/>
<path transform="translate(1706,1283)" d="m0 0h11v2l-12 1z" fill="#B79A58"/>
<path transform="translate(1528,803)" d="m0 0h1v20h-1l-1-7v-8z" fill="#BFA261"/>
<path transform="translate(1415,719)" d="m0 0 4 2 6 9h-3l-7-9z" fill="#B99D5E"/>
<path transform="translate(1568,707)" d="m0 0 2 1-10 10-2-1 8-9z" fill="#564B3C"/>
<path transform="translate(996,272)" d="m0 0 11 2v2h-11z" fill="#685230"/>
<path transform="translate(465,1222)" d="m0 0m-1 1m-1 1m-1 1m-1 1v3l-7 6-2-1 7-7z" fill="#BFA261"/>
<path transform="translate(1333,1137)" d="m0 0h5l4 4h-10l-2-2z" fill="#2A1908"/>
<path transform="translate(1882,980)" d="m0 0h2l3 10-1 3-3-5z" fill="#BCA77C"/>
<path transform="translate(1668,721)" d="m0 0h2l4 9-1 4-5-10z" fill="#BD9F5C"/>
<path transform="translate(1740,695)" d="m0 0h5l-4 3-6 4h-3l4-5z" fill="#4E3B21"/>
<path transform="translate(1131,196)" d="m0 0 2 1-5 11h-3l2-5z" fill="#CFBA8B"/>
<path transform="translate(1006,138)" d="m0 0 12 1 1 3-13-2z" fill="#CBB37F"/>
<path transform="translate(731,1108)" d="m0 0h8l-3 3-4 1-5-2z" fill="#75603C"/>
<path transform="translate(92 1e3)" d="m0 0h1l-1 13h-2v-8z" fill="#BFA262"/>
<path transform="translate(473,689)" d="m0 0 3 1v7h-1l-1-5-6 5-2-1z" fill="#C4A96E"/>
<path transform="translate(1657,478)" d="m0 0h8l2 2v2h-8v-2z" fill="#BD9F5C"/>
<path transform="translate(1610,894)" d="m0 0h2l-1 15-2-1z" fill="#BD9F5C"/>
<path transform="translate(1177,192)" d="m0 0 12 12-1 2-10-10z" fill="#D6C49C"/>
<path transform="translate(881,810)" d="m0 0 2 1v11l-2 1z" fill="#FAF9F6"/>
<path transform="translate(1028,759)" d="m0 0 2 1v15h-1l-1-7z" fill="#BFA262"/>
<path transform="translate(1253,756)" d="m0 0h2v12l-2-4z" fill="#C6AD74"/>
<path transform="translate(1514,621)" d="m0 0 1 3-3 8-2 1 3-11z" fill="#D6C49C"/>
<path transform="translate(1490,406)" d="m0 0h3v2l5 1-2 2-7-3z" fill="#FDFDFD"/>
<path transform="translate(1031,786)" d="m0 0h1v19h-1z" fill="#C0A364"/>
<path transform="translate(68,615)" d="m0 0h1v17h-1z" fill="#DED0B1"/>
<path transform="translate(545,897)" d="m0 0h1v15h-1z" fill="#C1A566"/>
<path transform="translate(1177,274)" d="m0 0h3l-2 4h-3v-3z" fill="#BD9F5C"/>
<path transform="translate(1686,832)" d="m0 0h1v8h-2v-7z" fill="#C6AC73"/>
<path transform="translate(1340,862)" d="m0 0h1v13h-1z" fill="#BD9F5C"/>
<path transform="translate(1339,728)" d="m0 0 1 4-2 6-1-3z" fill="#E4D8BF"/>
<path transform="translate(1526,788)" d="m0 0h1v9l-2-4z" fill="#CDB684"/>
<path transform="translate(1184,274)" d="m0 0 2 2-2 2h-3l1-3z" fill="#BD9F5C"/>
<path transform="translate(1035,985)" d="m0 0 2 2v6l-2-2z" fill="#C2A76A"/>
<path transform="translate(545,854)" d="m0 0h1v11h-1z" fill="#CEB887"/>
<path transform="translate(1137,188)" d="m0 0 1 3-4 4 2-5z" fill="#C8B079"/>
<path transform="translate(1746,739)" d="m0 0h1l1 9-2-3z" fill="#BD9F5C"/>
<path transform="translate(545,944)" d="m0 0h1v9h-1z" fill="#C4A96D"/>
<path transform="translate(545,926)" d="m0 0h1v9h-1z" fill="#D9C8A3"/>
<path transform="translate(1031,889)" d="m0 0h1v9h-1z" fill="#CBB37F"/>
<path transform="translate(896,873)" d="m0 0v3l-3 3 2-5z" fill="#CBB37F"/>
<path transform="translate(985,135)" d="m0 0 8 1v1l-8-1z" fill="#E7DDC7"/>
<path transform="translate(1344,920)" d="m0 0 2 2v4h-2z" fill="#EDE5D4"/>
<path transform="translate(1690,891)" d="m0 0h1v8h-1z" fill="#CDB684"/>
<path transform="translate(1612,884)" d="m0 0h1v8h-1z" fill="#BD9F5C"/>
<path transform="translate(545,804)" d="m0 0h1v8h-1z" fill="#BD9F5C"/>
<path transform="translate(1828,754)" d="m0 0h1v8h-1z" fill="#E5D9C0"/>
<path transform="translate(1679,766)" d="m0 0h1v7h-1z" fill="#BD9F5C"/>
<path transform="translate(876,582)" d="m0 0 3 1v2l-3-1z" fill="#C6AC73"/>
<path transform="translate(535,1126)" d="m0 0 1 3-2 2z" fill="#D2BE91"/>
<path transform="translate(537,1121)" d="m0 0 1 3-2 2z" fill="#FDFDFD"/>
<path transform="translate(1033,948)" d="m0 0 2 4h-2z" fill="#BD9F5C"/>
<path transform="translate(1026,750)" d="m0 0h2l-1 4z" fill="#D2BE91"/>
<path transform="translate(539,1117)" d="m0 0 1 2-2 2z" fill="#F0EADC"/>
<path transform="translate(1271,1062)" d="m0 0h1v5h-1z" fill="#C9B17C"/>
<path transform="translate(545,954)" d="m0 0h1v5h-1z" fill="#C9B17C"/>
<path transform="translate(1033,954)" d="m0 0 2 1v2h-2z" fill="#BD9F5C"/>
<path transform="translate(1033,942)" d="m0 0 2 4h-2z" fill="#BD9F5C"/>
<path transform="translate(545,913)" d="m0 0h1v5h-1z" fill="#BD9F5C"/>
<path transform="translate(1690,885)" d="m0 0h1v5h-1z" fill="#C9B17C"/>
<path transform="translate(742,828)" d="m0 0 1 3h-2z" fill="#D6C49C"/>
<path transform="translate(1525,784)" d="m0 0h2l-1 3z" fill="#C9B17C"/>
<path transform="translate(1498,410)" d="m0 0 4 1-2 1z" fill="#FDFDFD"/>
<path transform="translate(1189,275)" d="m0 0 3 1-4 1z" fill="#D6C49C"/>
<path transform="translate(1251,1126)" d="m0 0v3z" fill="#CDB684"/>
<path transform="translate(541,1108)" d="m0 0 1 4z" fill="#FDFDFD"/>
<path transform="translate(1031,883)" d="m0 0 1 4z" fill="#BD9F5C"/>
<path transform="translate(1683,814)" d="m0 0h2v2h-2z" fill="#BD9F5C"/>
<path transform="translate(1443,765)" d="m0 0h2l-1 3z" fill="#DDCEAC"/>
<path transform="translate(1250,713)" d="m0 0 1 4z" fill="#BD9F5C"/>
<path transform="translate(1509,633)" d="m0 0v3z" fill="#FDFDFD"/>
<path transform="translate(1273,1052)" d="m0 0" fill="#FDFDFD"/>
<path transform="translate(1459,947)" d="m0 0" fill="#D2BE91"/>
<path transform="translate(1346,939)" d="m0 0 2 2h-2z" fill="#D2BE91"/>
<path transform="translate(545,920)" d="m0 0" fill="#BD9F5C"/>
<path transform="translate(1264,893)" d="m0 0" fill="#FDFDFD"/>
<path transform="translate(1031,837)" d="m0 0" fill="#FDFDFD"/>
<path transform="translate(1258,815)" d="m0 0" fill="#E7DDC7"/>
<path transform="translate(1031,807)" d="m0 0" fill="#BD9F5C"/>
<path transform="translate(543,773)" d="m0 0" fill="#D2BE91"/>
<path transform="translate(1674,736)" d="m0 0h2l-1 2z" fill="#E7DDC7"/>
<path transform="translate(1340,725)" d="m0 0" fill="#E7DDC7"/>
<path transform="translate(1796,698)" d="m0 0 3 1z" fill="#D2BE91"/>
<path transform="translate(1793,697)" d="m0 0 3 1z" fill="#FDFDFD"/>
<path transform="translate(1548,415)" d="m0 0 3 1z" fill="#D2BE91"/>
<path transform="translate(1200,277)" d="m0 0 3 1z" fill="#BD9F5C"/>
<path transform="translate(1195,274)" d="m0 0 2 2h-2z" fill="#BD9F5C"/>
<path transform="translate(970,159)" d="m0 0 3 1z" fill="#FDFDFD"/>
<path transform="translate(1060,146)" d="m0 0 3 1z" fill="#FDFDFD"/>
<path transform="translate(993,137)" d="m0 0 3 1z" fill="#FDFDFD"/>
<path transform="translate(1249,1129)" d="m0 0" fill="#FDFDFD"/>
<path transform="translate(540,1112)" d="m0 0" fill="#FDFDFD"/>
<path transform="translate(1271,1059)" d="m0 0" fill="#FDFDFD"/>
<path transform="translate(547 1e3)" d="m0 0" fill="#FDFDFD"/>
<path transform="translate(638,997)" d="m0 0" fill="#FDFDFD"/>
<path transform="translate(1037,994)" d="m0 0" fill="#FDFDFD"/>
<path transform="translate(1541,980)" d="m0 0" fill="#BD9F5C"/>
<path transform="translate(1541,976)" d="m0 0" fill="#FDFDFD"/>
<path transform="translate(1033,961)" d="m0 0" fill="#BD9F5C"/>
<path transform="translate(545,960)" d="m0 0" fill="#DDCEAC"/>
<path transform="translate(1457,953)" d="m0 0" fill="#FDFDFD"/>
<path transform="translate(885,949)" d="m0 0" fill="#FDFDFD"/>
<path transform="translate(1461,941)" d="m0 0" fill="#DDCEAC"/>
<path transform="translate(1033,937)" d="m0 0" fill="#DDCEAC"/>
<path transform="translate(1552,884)" d="m0 0" fill="#DDCEAC"/>
<path transform="translate(1690,881)" d="m0 0" fill="#DDCEAC"/>
<path transform="translate(1262,869)" d="m0 0" fill="#FDFDFD"/>
<path transform="translate(545,868)" d="m0 0" fill="#BD9F5C"/>
<path transform="translate(545,851)" d="m0 0" fill="#FDFDFD"/>
<path transform="translate(1260,844)" d="m0 0" fill="#FDFDFD"/>
<path transform="translate(1260,840)" d="m0 0" fill="#BD9F5C"/>
<path transform="translate(1338,836)" d="m0 0" fill="#DDCEAC"/>
<path transform="translate(1338,831)" d="m0 0" fill="#BD9F5C"/>
<path transform="translate(1031,825)" d="m0 0" fill="#DDCEAC"/>
<path transform="translate(1031,819)" d="m0 0" fill="#DDCEAC"/>
<path transform="translate(1683,819)" d="m0 0 2 1z" fill="#DDCEAC"/>
<path transform="translate(1258,810)" d="m0 0" fill="#DDCEAC"/>
<path transform="translate(1441,758)" d="m0 0" fill="#FDFDFD"/>
<path transform="translate(737,752)" d="m0 0 2 1z" fill="#BD9F5C"/>
<path transform="translate(1828,747)" d="m0 0" fill="#BD9F5C"/>
<path transform="translate(735,744)" d="m0 0" fill="#FDFDFD"/>
<path transform="translate(1521,743)" d="m0 0" fill="#DDCEAC"/>
<path transform="translate(1251,744)" d="m0 0 2 1z" fill="#DDCEAC"/>
<path transform="translate(1521,737)" d="m0 0 2 1z" fill="#FDFDFD"/>
<path transform="translate(1251,721)" d="m0 0" fill="#FDFDFD"/>
<path transform="translate(1256,562)" d="m0 0 2 1z" fill="#FDFDFD"/>
<path transform="translate(1551,416)" d="m0 0 2 1z" fill="#FDFDFD"/>
<path transform="translate(1420,407)" d="m0 0" fill="#FDFDFD"/>
<path transform="translate(1089,319)" d="m0 0" fill="#FDFDFD"/>
<path transform="translate(1128,221)" d="m0 0" fill="#FDFDFD"/>
<path transform="translate(1129,219)" d="m0 0" fill="#FDFDFD"/>
<path transform="translate(1130,217)" d="m0 0" fill="#FDFDFD"/>
<path transform="translate(1065,147)" d="m0 0 2 1z" fill="#FDFDFD"/>
<path transform="translate(1e3 138)" d="m0 0 2 1z" fill="#BD9F5C"/>
<path transform="translate(998,137)" d="m0 0 2 1z" fill="#FDFDFD"/>
<path transform="translate(981,135)" d="m0 0 2 1z" fill="#FDFDFD"/>
<path transform="translate(1272,1058)" d="m0 0" fill="#BD9F5C"/>
<path transform="translate(547,1039)" d="m0 0" fill="#FDFDFD"/>
<path transform="translate(547,998)" d="m0 0" fill="#FDFDFD"/>
<path transform="translate(1038,996)" d="m0 0" fill="#FDFDFD"/>
<path transform="translate(1455,959)" d="m0 0" fill="#FDFDFD"/>
<path transform="translate(1268,942)" d="m0 0" fill="#FDFDFD"/>
<path transform="translate(545,938)" d="m0 0" fill="#BD9F5C"/>
<path transform="translate(1463,931)" d="m0 0" fill="#FDFDFD"/>
<path transform="translate(1342,903)" d="m0 0" fill="#FDFDFD"/>
<path transform="translate(1031,902)" d="m0 0" fill="#FDFDFD"/>
<path transform="translate(331,901)" d="m0 0" fill="#FDFDFD"/>
<path transform="translate(330,900)" d="m0 0" fill="#BD9F5C"/>
<path transform="translate(1342,897)" d="m0 0" fill="#FDFDFD"/>
<path transform="translate(1550,894)" d="m0 0" fill="#FDFDFD"/>
<path transform="translate(1340,877)" d="m0 0" fill="#FDFDFD"/>
<path transform="translate(897,872)" d="m0 0" fill="#FDFDFD"/>
<path transform="translate(1262,864)" d="m0 0" fill="#FDFDFD"/>
<path transform="translate(1338,843)" d="m0 0" fill="#BD9F5C"/>
<path transform="translate(1031,832)" d="m0 0" fill="#BD9F5C"/>
<path transform="translate(1338,825)" d="m0 0" fill="#FDFDFD"/>
<path transform="translate(742,823)" d="m0 0" fill="#FDFDFD"/>
<path transform="translate(346,805)" d="m0 0" fill="#FDFDFD"/>
<path transform="translate(1336,789)" d="m0 0" fill="#FDFDFD"/>
<path transform="translate(1029,778)" d="m0 0" fill="#BD9F5C"/>
<path transform="translate(543,767)" d="m0 0" fill="#FDFDFD"/>
<path transform="translate(1442,761)" d="m0 0" fill="#FDFDFD"/>
<path transform="translate(1336,754)" d="m0 0" fill="#BD9F5C"/>
<path transform="translate(1521,748)" d="m0 0" fill="#FDFDFD"/>
<path transform="translate(1336,748)" d="m0 0" fill="#BD9F5C"/>
<path transform="translate(731,735)" d="m0 0" fill="#FDFDFD"/>
<path transform="translate(1618,725)" d="m0 0" fill="#FDFDFD"/>
<path transform="translate(1013,723)" d="m0 0" fill="#BD9F5C"/>
<path transform="translate(1012,722)" d="m0 0" fill="#BD9F5C"/>
<path transform="translate(1011,721)" d="m0 0" fill="#BD9F5C"/>
<path transform="translate(1010,720)" d="m0 0" fill="#FDFDFD"/>
<path transform="translate(1610,718)" d="m0 0" fill="#FDFDFD"/>
<path transform="translate(1609,717)" d="m0 0" fill="#BD9F5C"/>
<path transform="translate(1767,695)" d="m0 0" fill="#FDFDFD"/>
<path transform="translate(541,679)" d="m0 0" fill="#BD9F5C"/>
<path transform="translate(69,632)" d="m0 0" fill="#FDFDFD"/>
<path transform="translate(590,553)" d="m0 0" fill="#FDFDFD"/>
<path transform="translate(462,516)" d="m0 0" fill="#FDFDFD"/>
<path transform="translate(604,491)" d="m0 0" fill="#FDFDFD"/>
<path transform="translate(1570,489)" d="m0 0" fill="#FDFDFD"/>
<path transform="translate(1418,407)" d="m0 0" fill="#FDFDFD"/>
<path transform="translate(1497,406)" d="m0 0" fill="#FDFDFD"/>
<path transform="translate(1486,402)" d="m0 0" fill="#BD9F5C"/>
<path transform="translate(1239,249)" d="m0 0" fill="#FDFDFD"/>
<path transform="translate(1131,216)" d="m0 0" fill="#FDFDFD"/>
<path transform="translate(1189,206)" d="m0 0" fill="#FDFDFD"/>
<path transform="translate(1176,191)" d="m0 0" fill="#FDFDFD"/>
<path transform="translate(1023,144)" d="m0 0" fill="#FDFDFD"/>
</svg>